<?xml version="1.0" encoding="utf-8"?>
<!-- Generator: Adobe Illustrator 16.0.0, SVG Export Plug-In . SVG Version: 6.00 Build 0)  -->
<!DOCTYPE svg PUBLIC "-//W3C//DTD SVG 1.1//EN" "http://www.w3.org/Graphics/SVG/1.1/DTD/svg11.dtd">
<svg version="1.1" id="Layer_1" xmlns="http://www.w3.org/2000/svg" xmlns:xlink="http://www.w3.org/1999/xlink" x="0px" y="0px"
	 width="181px" height="77px" viewBox="0 0 181 77" enable-background="new 0 0 181 77" xml:space="preserve">
<text id="Assembl_12_" transform="matrix(1 0 0 1 11.3794 52.9639)" fill="#513850" font-family="'OpenSans-Semibold'" font-size="29.5882">Assembl</text>
<path fill="#4AC780" d="M157.848,26.351c-1.744,0-3.31,0.567-4.652,1.687c-0.271,0.226-0.307,0.628-0.081,0.899
	c0.226,0.271,0.629,0.307,0.899,0.082c1.106-0.923,2.396-1.391,3.834-1.391c3.476,0,6.303,2.775,6.303,6.187
	c0,3.452-2.827,6.26-6.303,6.26c-2.94,0-4.886-2.009-6.12-6.324c-1.405-4.91-3.91-7.399-7.445-7.399
	c-4.179,0-7.579,3.348-7.579,7.463c0,4.156,3.4,7.537,7.579,7.537c1.76,0,3.361-0.614,4.76-1.826
	c0.267-0.231,0.296-0.634,0.064-0.901c-0.23-0.266-0.634-0.295-0.9-0.064c-1.159,1.005-2.479,1.515-3.924,1.515
	c-3.476,0-6.302-2.808-6.302-6.26c0-3.412,2.826-6.187,6.302-6.187c2.938,0,4.972,2.118,6.218,6.474
	c1.396,4.878,3.8,7.25,7.348,7.25c4.18,0,7.579-3.381,7.579-7.537C165.427,29.699,162.027,26.351,157.848,26.351z"/>
</svg>
