<?xml version="1.0" standalone="no"?>
<!DOCTYPE svg PUBLIC "-//W3C//DTD SVG 1.1//EN" "http://www.w3.org/Graphics/SVG/1.1/DTD/svg11.dtd">
<svg xmlns="http://www.w3.org/2000/svg">
<metadata>Copyright (C) 2016 by original authors @ fontello.com</metadata>
<defs>
<font id="fontello" horiz-adv-x="1000" >
<font-face font-family="fontello" font-weight="400" font-stretch="normal" units-per-em="1000" ascent="850" descent="-150" />
<missing-glyph horiz-adv-x="1000" />
<glyph glyph-name="checkbox" unicode="&#xe800;" d="M500 850c-276 0-500-224-500-500s224-500 500-500 500 224 500 500-224 500-500 500z m-71-736l-235 236 94 94 141-141 283 283 94-95-377-377z" horiz-adv-x="1000" />

<glyph glyph-name="collapse" unicode="&#xe801;" d="M73 161h158l-221-220 74-74 220 221v-158h105v336h-336z m854 0v105h-336v-336h105v158l220-221 74 74-221 220z m0 378h-158l221 220-74 74-220-220v157h-105v-336h336z m-623 74l-220 220-74-74 221-220h-158v-105h336v336h-105z" horiz-adv-x="1000" />

<glyph glyph-name="home" unicode="&#xe802;" d="M935 335l-95 86v206c0 9-7 16-16 16h-83c-4 0-9-2-12-5s-4-7-4-11l0-101-207 188c-6 5-15 5-22 0l-431-380c-6-5-7-13-4-20 3-6 11-9 18-8l96 22v-296c0-3 0-16 9-26 5-4 12-10 25-10 23 0 214 0 214 0 9 0 16 8 16 17l0 176c0 2 0 8 2 10 2 2 5 2 7 2h89c4 0 9-1 12-4 3-3 3-8 3-9l0-175c0-4 1-8 4-11 3-3 7-5 12-5h209c14 0 23 6 28 11 11 12 11 28 11 29v296l105-25c7-2 14 2 18 8 3 7 2 15-4 19z m-178 276h51v-161l-51 47 0 114z m46-243c-4 2-9 0-13-3-4-3-6-7-6-12v-317c0-1-1-5-2-6-1-1-3-1-5-1h-193l0 158c0 2 1 19-11 32-6 6-17 14-36 14h-89c-16 0-25-7-31-13-11-12-10-28-10-33l0-158c-47-1-179-1-198-1-1 0-1 0-2 0 0 0 0 0 0 0 0 1 0 2 0 3v317c0 5-2 9-6 12-4 3-9 4-14 3l-54-12 374 329 218-197v-1h1l142-129-65 15z" horiz-adv-x="1000" />

<glyph glyph-name="book" unicode="&#xe803;" d="M221 70c0-1 0-3 0-4 0 0 0-1 0-1 1-30 26-54 56-54h502v55c0 11 9 20 20 20s20-9 20-20v-75c0-12-9-20-20-20h-525c-1 0-2 0-3 0-50 3-90 45-90 96 0 1 0 2 0 4-1 59 0 511 0 560 0 1 0 1 0 2 0 53 43 96 96 96h1v-464c0-6 1-10 4-13 3-2 7-2 9 1l71 83 66-83c2-2 3-3 5-3 2 0 3 1 4 2 3 2 5 7 5 13v464h357c11 0 20-8 20-20v-565c0-11-9-20-20-20 0 0 0 0 0 0-2 0-3 0-5 0h-517c-30 0-54-24-56-54z" horiz-adv-x="1000" />

<glyph glyph-name="delete" unicode="&#xe804;" d="M768 524l-174-174 174-174c26-26 26-68 0-94-13-13-30-20-47-20-17 0-34 7-47 20l-174 174-174-174c-13-13-30-20-47-20-17 0-34 7-47 20-26 26-26 68 0 94l174 174-174 174c-26 26-26 68 0 94 26 26 68 26 94 0l174-174 174 174c26 26 68 26 94 0 26-26 26-68 0-94z" horiz-adv-x="1000" />

<glyph glyph-name="quote" unicode="&#xe805;" d="M1050 419c-32 9-64 11-95 9 160 345 505 503 192 381-347-135-450-586-452-595 0 0 0 0 0 0-42-155 50-314 205-356 155-41 314 51 355 206 42 155-50 314-205 355z m-684 0c-32 9-64 11-95 9 160 345 505 503 191 381-347-135-450-586-452-595 0 0 0 0 0 0-42-155 50-314 205-356 155-41 314 51 356 206 41 155-51 314-205 355z" horiz-adv-x="1271" />

<glyph glyph-name="lock" unicode="&#xe806;" d="M0 46v322q0 22 16 38t38 15h17v108q0 102 74 176t176 74 177-74 73-176v-108h18q23 0 38-15t16-38v-322q0-22-16-37t-38-16h-535q-23 0-38 16t-16 37z m179 375h285v108q0 59-42 101t-101 41-101-41-41-101v-108z" horiz-adv-x="642.6" />

<glyph glyph-name="lock-open" unicode="&#xe807;" d="M0 46v322q0 22 16 38t38 15h375v108q0 103 73 176t177 74 176-74 74-176v-143q0-15-11-25t-25-11h-36q-14 0-25 11t-11 25v143q0 59-41 101t-101 41-101-41-42-101v-108h53q23 0 38-15t16-38v-322q0-22-16-37t-38-16h-535q-23 0-38 16t-16 37z" horiz-adv-x="927.7" />

<glyph glyph-name="sheet" unicode="&#xe808;" d="M502 704l-7 7-7-7c-64-61-128-191-128-320 0-84 34-173 127-177v-218h15v218c93 4 127 93 127 177 0 129-64 259-127 320z m-122-320c0 26 3 53 8 79l99-67v-87l-105 49c-1 8-2 17-2 26z m122 12l99 67c5-26 8-53 8-79 0-9-1-18-1-26l-106-49v87z m0 12v102l65 60c13-30 24-63 32-97l-97-65z m0 116v150c22-25 43-57 60-94l-60-56z m-15 150v-150l-60 56c18 37 39 69 60 94z m-64-104l64-60v-102l-97 65c8 34 19 67 33 97z m64-343c-57 3-95 47-104 119l104-48v-71z m15 0v71l104 48c-9-72-46-116-104-119z" horiz-adv-x="1000" />

<glyph glyph-name="comment" unicode="&#xe809;" d="M660 39l-121 181h-379v450h680v-450h-144l-36-181z m-460 221h361l79-119 24 119h136v370h-600v-370z" horiz-adv-x="1000" />

<glyph glyph-name="timer" unicode="&#xe80a;" d="M648 850c-271 0-491-217-498-487h-150l224-250 225 250h-174c6 201 171 362 373 362 206 0 374-168 374-375s-168-375-374-375c-83 0-159 27-221 73l-86-92c85-66 191-106 307-106 275 0 498 224 498 500s-223 500-498 500z m-44-232v-286l183-183 60 61-158 158v250h-85z" horiz-adv-x="1146.5" />

<glyph glyph-name="options" unicode="&#xe80b;" d="M814 458l-15 34c51 114 47 118 37 128l-64 63-6 5h-8c-4 0-16 0-113-44l-36 14c-47 116-52 116-65 116h-91c-14 0-19 0-63-116l-35-15c-67 28-105 42-116 42l-8 0-70-68c-10-10-14-13 39-125l-14-35c-118-46-118-50-118-64v-89c0-14 0-19 118-62l15-34c-51-114-47-118-37-128l64-63 6-5h8c4 0 15 0 113 44l36-14c47-116 52-116 65-116h91c14 0 19 0 63 116l36 15c66-28 104-42 115-42l8 0 70 68c10 10 14 14-39 125l14 35c118 46 118 51 118 64v89c0 14 0 19-118 62z m-314-256c-83 0-151 66-151 148 0 82 68 148 151 148 83 0 151-66 151-148 0-82-68-148-151-148z" horiz-adv-x="1000" />

<glyph glyph-name="message" unicode="&#xe80c;" d="M500 129l500 250v-529h-1000v529l500-250z m0 721l-500-249v-126h83v83h834v-83h83v126l-500 249z m250-375h-500v-42h500v42z m-500-167h417v42h-417v-42z" horiz-adv-x="1000" />

<glyph glyph-name="clipboard" unicode="&#xe80d;" d="M645 787h-159v-64h129c17 0 32-15 32-33v-743c0-18-15-33-32-33h-518c-18 0-32 15-32 33v743c0 18 14 33 32 33h131v64h-163c-36 0-65-29-65-65v-808c0-35 29-64 65-64h580c35 0 66 29 66 64v808c0 36-31 65-66 65z m-440-101c-14 0-25-8-25-17 0-10 0-35 0-35h351c0 0 0 25 0 35 0 9-11 17-25 17h-75v140c-77 54-151 0-151 0l0-140h-75z m-61-207h423v-82h-423v82z m0-186h423v-81h-423v81z m0-193h423v-81h-423v81z" horiz-adv-x="710.9" />

<glyph glyph-name="synth" unicode="&#xe80e;" d="M986 845c-5 3-11 5-17 5-6 0-12-2-18-5l-937-625c-10-7-15-18-14-29 1-12 9-22 20-26l244-98 115-201c6-10 16-16 27-16 0 0 0 0 0 0 11 0 21 6 27 15l65 108 303-121c4-1 8-2 12-2 5 0 10 1 15 4 8 5 14 13 15 22l157 938c2 12-4 24-14 31z m-888-644l724 483-526-564c-3 2-6 4-9 5l-189 76z m220-103c0 0 0 0 0 0l592 634-504-787-88 153z m470-173l-267 107c-6 2-13 3-19 3l411 637-125-747z" horiz-adv-x="1000" />

<glyph glyph-name="tableofideas" unicode="&#xe80f;" d="M904 731h-654c-35 0-64-29-64-64s29-64 64-64h654c35 0 64 29 64 64s-29 64-64 64z m0-223h-654c-35 0-64-29-64-64s29-64 64-64h654c35 0 64 29 64 64s-29 64-64 64z m0-213h-654c-35 0-64-29-64-64s29-64 64-64h654c35 0 64 29 64 64s-29 64-64 64z m0-218h-654c-35 0-64-29-64-64s29-64 64-64h654c35 0 64 29 64 64s-29 64-64 64z m-808 526c35 0 64 29 64 64s-29 64-64 64-64-29-64-64 29-64 64-64z m0-223c35 0 64 29 64 64s-29 64-64 64-64-29-64-64 29-64 64-64z m0-213c35 0 64 29 64 64s-29 64-64 64-64-29-64-64 29-64 64-64z m0-218c35 0 64 29 64 64s-29 64-64 64-64-29-64-64 29-64 64-64z" horiz-adv-x="1000" />

<glyph glyph-name="answer" unicode="&#xe810;" d="M1526-150c-13 0-25 8-31 20v0c-4 9-100 226-461 269-75 9-165 13-274 14v-270c0-12-7-23-18-29-11-6-24-5-34 2l-693 466c-9 6-15 17-15 28 0 11 6 21 15 28l693 466c10 7 23 8 34 2 12-6 18-17 18-29v-251c151-20 800-136 800-683 0-16-12-30-27-33-2 0-5 0-7 0z" horiz-adv-x="1560.5" />

<glyph glyph-name="lab" unicode="&#xe811;" d="M646 733c-14 15-34 23-55 23s-40-8-55-23l-44-44c-15-14-23-34-23-55 0-15 4-29 11-41l-424-170c-28-12-49-38-54-68-6-31 4-62 26-84l397-394c17-17 40-26 64-27 1 0 2 0 3 0 6 0 12 1 19 2 31 6 56 28 68 57l167 418c12-8 27-13 42-13 21 0 41 9 56 23l44 44c14 15 23 35 23 56s-9 40-23 55l-242 241z m-125-801c-4-10-13-17-23-19-2 0-5-1-7-1-8 1-16 4-22 10l-397 393c-8 7-11 18-9 28 2 10 9 19 18 23l195 78c130-44 261-2 392-142l-147-370z m323 494l-45-44c-6-7-16-7-22 0l-55 55-45-112 4 9c-94 94-190 106-276 116-28 4-55 7-81 13l265 106-53 54c-6 6-6 16 0 22l44 44c6 6 16 6 22 0l242-241c6-6 6-16 0-22z m-328-232c43 0 78 35 78 78s-35 78-78 78c-43 0-78-35-78-78s35-78 78-78z m0 125c26 0 47-21 47-47s-21-47-47-47c-26 0-47 21-47 47s21 47 47 47z m406 531c-43 0-78-35-78-78s35-78 78-78 78 35 78 78-35 78-78 78z m0-125c-26 0-47 21-47 47s21 47 47 47 47-21 47-47-21-47-47-47z m-672-406c0-35 28-63 63-63s62 28 62 63-28 62-62 62-63-28-63-62z m63 31c17 0 31-14 31-31s-14-31-31-31-32 14-32 31 14 31 32 31z m125-219c0-17-14-31-32-31s-31 14-31 31c0 18 14 32 31 32s32-14 32-32z m500 469c0-17-14-31-32-31s-31 14-31 31c0 17 14 31 31 31s32-14 32-31z" horiz-adv-x="1000" />

<glyph glyph-name="heart" unicode="&#xe812;" d="M727 654c42 0 84-16 117-49 64-64 64-169 0-234l-184-184-38-37-117-118-117 118-38 37-183 184c-65 65-65 170 0 234 32 33 74 49 117 49 33 0 67-10 95-30l0 0c0 0 3-2 9-7 0 0 1 0 1 0 29-23 116-91 116-116 0 25 87 93 117 116 0 0 0 0 0 0 6 5 10 7 10 7l-1 0c29 20 62 30 96 30m0 58c-45 0-88-13-124-38-2-1-4-2-6-3 0 0-3-3-9-7-1-1-2-1-2-2-35-27-61-48-81-67-3 3-5 5-8 8-27 24-57 47-73 59 0 1-1 1-1 1-6 5-10 8-10 8-2 1-3 2-5 3-37 25-80 38-124 38-60 0-116-23-158-66-42-42-66-98-66-158 0-60 24-116 66-158l184-184 37-37 117-118c11-10 26-17 41-17l0 0c16 0 30 7 41 17l117 118 38 37 184 184c42 42 65 98 65 158 0 60-23 116-65 158-43 43-99 66-158 66l0 0z" horiz-adv-x="1000" />

<glyph glyph-name="add" unicode="&#xe813;" d="M1117 442c-10 10-23 15-38 15h-232v232c0 15-5 28-16 38-10 11-23 16-38 16h-107c-15 0-27-5-38-16s-15-23-15-38v-232h-233c-14 0-27-5-37-15s-16-23-16-38v-108c0-14 5-27 16-37 10-11 23-16 37-16h233v-232c0-15 5-28 15-38s23-16 38-16h107c15 0 28 5 38 16 11 10 16 23 16 38v232h232c15 0 28 5 38 16 10 10 16 23 16 37v108c0 15-6 27-16 38z" horiz-adv-x="1480.5" />

<glyph glyph-name="arrowdown" unicode="&#xe814;" d="M500 137c-13 0-27 5-37 16l-321 321c-20 20-20 53 0 74 21 20 54 20 74 0l284-285 284 285c20 20 54 20 74 0 20-21 20-54 0-74l-321-321c-10-11-24-16-37-16z" horiz-adv-x="1000" />

<glyph glyph-name="expand" unicode="&#xe815;" d="M339 270l-220-220v157h-104v-336h335v105h-157l220 220z m542-220l-220 220-74-74 220-220h-157v-105h336v336h-105z m-231 779v-105h157l-220-220 74-74 220 221v-158h105v336z m-300-105v105h-335v-336h104v158l220-221 74 74-220 220z" horiz-adv-x="1000" />

<glyph glyph-name="search" unicode="&#xe816;" d="M333 419c-78 0-132 123-132 189 0 73 59 132 132 132s132-59 132-132c0-66-55-189-132-189z m0 279c-50 0-91-40-91-90 0-54 45-148 91-148s90 94 90 148c0 50-41 90-90 90z m150-364c-8 0-16 4-19 12-17 39-51 68-91 80-11 3-18 15-14 26 3 11 14 17 26 14 52-15 95-53 117-103 4-11 0-23-11-28-3-1-5-1-8-1z m-300 0c-3 0-6 1-9 2-10 5-15 17-10 28 22 49 64 86 115 101 11 4 22-3 26-14 3-11-3-22-14-26-40-12-72-40-89-78-4-8-11-13-19-13z m152-109c-173 0-313 140-313 312s140 313 313 313c172 0 312-140 312-313s-140-312-312-312z m0 583c-150 0-271-121-271-271s121-271 271-271 271 122 271 271-122 271-271 271z m563-958c-5 0-11 2-15 6l-403 404c-8 8-8 21 0 29l59 59c8 8 22 8 29 0l404-403c8-8 8-22 0-30l-59-59c-4-4-9-6-15-6z m-374 425l374-375 30 30-374 374-30-29z" horiz-adv-x="1000" />

<glyph glyph-name="bullet-point" unicode="&#xe817;" d="M151 582c-5 2-9 5-12 10-4 8-4 19-4 39v86c0 53 7 56 61 56h113c14 0 24 0 30-7 7-7 7-17 7-39l0-100c0-18 0-27-2-34-4-13-16-13-21-13-2 0-4 1-7 1-3 0-6 0-10 0h-114c-6 0-11 0-15 0-2 0-3 0-5 0-3 0-12-2-21 1z m677 191h-425c-10 0-18-15-18-33v-3c0-18 8-41 18-41h425c18 0 18 23 18 41v3c0 18 0 33-18 33z m-60-115h-367c-9 0-16-15-16-34v-2c0-19 7-41 16-41h365c10 0 23 2 23 41v2c0 29-12 34-21 34z m-617-384c-5 2-9 5-12 11-4 7-4 18-4 38v87c0 52 7 55 61 55h113c14 0 24 0 30-6 7-7 7-17 7-39l0-100c0-19 0-28-2-35-4-12-16-12-21-12-2 0-4 0-7 0-3 0-6 0-10 0h-114c-6 0-11 0-15 0-2 0-3 0-5 0-3 0-12-1-21 1z m677 191h-425c-10 0-18-15-18-33v-3c0-18 8-40 18-40h425c18 0 18 22 18 40v3c0 18 0 33-18 33z m-60-115h-367c-9 0-16-15-16-33v-3c0-18 7-41 16-41h365c10 0 23 2 23 41v3c0 28-12 33-21 33z m-617-383c-5 1-9 4-12 10-4 7-4 18-4 38v87c0 52 7 56 61 56h113c14 0 24 0 30-7 7-7 7-17 7-39l0-100c0-19 0-28-2-34-4-13-16-13-21-13-2 0-4 0-7 0-3 0-6 0-10 0h-114c-6 0-11 0-15 0-2 0-3 0-5 0-3 0-12-1-21 2z m677 191h-425c-10 0-18-15-18-34v-2c0-19 8-41 18-41h425c18 0 18 22 18 41v2c0 19 0 34-18 34z m-60-116h-367c-9 0-16-15-16-33v-3c0-18 7-41 16-41h365c10 0 23 2 23 41v3c0 28-12 33-21 33z" horiz-adv-x="1000" />

<glyph glyph-name="idea" unicode="&#xe818;" d="M646-15h-292c-11 0-21 10-21 21v225c-65 51-104 130-104 213 0 149 122 271 271 271s271-122 271-271c0-83-39-162-104-213v-225c0-11-10-21-21-21z m-271 42h250v214c0 7 3 13 9 17 60 43 95 113 95 186 0 126-103 229-229 229s-229-103-229-229c0-74 36-143 95-186 6-4 9-10 9-17v-214z m125-167c-84 0-146 96-146 146 0 12 10 21 21 21h250c12 0 21-9 21-21 0-50-62-146-146-146z m-99 125c13-34 52-83 99-83s86 49 100 83h-199z m224 209h-250c-11 0-21 9-21 21s10 20 21 20h250c12 0 21-9 21-20s-9-21-21-21z m0-63c-1 0-2 0-3 1l-250 41c-12 2-19 13-17 24 1 12 12 19 23 17l250-41c12-2 20-13 18-24-2-11-11-18-21-18z m0-83c-1 0-2 0-3 0l-250 42c-12 2-19 13-17 24 1 11 12 19 23 17l250-42c12-2 20-12 18-24-2-10-11-17-21-17z m-458 354h-84c-11 0-20 10-20 21s9 21 20 21h84c11 0 21-10 21-21s-10-21-21-21z m750 0h-84c-11 0-20 10-20 21s9 21 20 21h84c11 0 21-10 21-21s-10-21-21-21z m-542 313c-8 0-15 4-19 11l-41 83c-5 11-1 23 9 28 10 6 23 1 28-9l42-83c5-11 1-23-10-28-3-2-6-2-9-2z m250 0c-3 0-6 0-9 2-11 5-15 18-10 28l42 83c5 10 18 15 28 10 10-6 14-18 9-28l-41-84c-4-7-11-11-19-11z m-417-125c-3 0-6 0-9 2l-83 42c-11 5-15 17-10 27 6 11 18 15 28 10l84-42c10-5 14-18 9-28-4-7-11-11-19-11z m584 0c-8 0-15 4-19 11-5 10-1 23 9 28l84 42c10 5 23 1 28-10 5-10 1-22-10-28l-83-41c-3-2-6-2-9-2z" horiz-adv-x="1000" />

<glyph glyph-name="arrowright" unicode="&#xe819;" d="M698 313l-321-321c-21-20-54-20-74 0-21 21-21 54 0 74l284 284-284 284c-21 20-21 54 0 74 20 20 53 20 74 0l321-321c10-10 15-24 15-37s-5-27-15-37z" horiz-adv-x="1000" />

<glyph glyph-name="add-2" unicode="&#xe81a;" d="M500 850c-276 0-500-224-500-500s224-500 500-500c276 0 500 224 500 500s-224 500-500 500z m0-938c-242 0-437 196-437 438s195 438 437 438 438-196 438-438-196-438-438-438z m188 469h-157v157c0 17-14 31-31 31-17 0-31-14-31-31v-157h-156c-18 0-32-14-32-31s14-31 32-31h156v-156c0-18 14-32 31-32 17 0 31 14 31 32v156h157c17 0 31 14 31 31s-14 31-31 31z" horiz-adv-x="1000" />

<glyph glyph-name="check" unicode="&#xe81b;" d="M786 331v-177q0-67-47-114t-114-47h-464q-67 0-114 47t-47 114v464q0 66 47 113t114 48h464q35 0 65-14 9-4 10-13 2-10-5-16l-27-28q-6-5-13-5-2 0-5 1-13 3-25 3h-464q-37 0-63-26t-27-63v-464q0-37 27-63t63-27h464q37 0 63 27t26 63v141q0 8 5 13l36 35q6 6 13 6 3 0 7-2 11-4 11-16z m129 273l-455-454q-13-14-31-14t-32 14l-240 240q-14 13-14 31t14 32l61 62q14 13 32 13t32-13l147-147 361 361q13 13 31 13t32-13l62-61q13-14 13-32t-13-32z" horiz-adv-x="928.6" />

<glyph glyph-name="check-empty" unicode="&#xe81c;" d="M625 707h-464q-37 0-63-26t-27-63v-464q0-37 27-63t63-27h464q37 0 63 27t26 63v464q0 37-26 63t-63 26z m161-89v-464q0-67-47-114t-114-47h-464q-67 0-114 47t-47 114v464q0 66 47 113t114 48h464q66 0 114-48t47-113z" horiz-adv-x="785.7" />

<glyph glyph-name="arrowleft" unicode="&#xe81d;" d="M287 350c0 13 5 27 16 37l321 321c20 20 53 20 74 0 20-20 20-54 0-74l-285-284 285-284c20-20 20-53 0-74-21-20-54-20-74 0l-321 321c-11 10-16 24-16 37z" horiz-adv-x="1000" />

<glyph glyph-name="infinite" unicode="&#xe81e;" d="M713 580c-55 0-104-18-146-53-9-7-10-20-3-28 7-8 20-10 28-3 35 29 76 44 121 44 108 0 197-87 197-194 0-108-89-196-197-196-93 0-154 63-192 198-44 154-123 232-233 232-131 0-238-105-238-234 0-130 107-236 238-236 55 0 105 19 149 57 8 8 9 20 2 28-8 9-20 10-29 3-36-32-77-48-122-48-109 0-198 88-198 196 0 107 89 194 198 194 92 0 155-66 194-203 44-153 119-227 231-227 131 0 237 106 237 236 0 129-106 234-237 234z" horiz-adv-x="1000" />

<glyph glyph-name="discuss" unicode="&#xe81f;" d="M89 259c-4 0-9 1-13 4-7 6-10 15-6 24l40 113h-89c-12 0-21 9-21 21v416c0 12 9 21 21 21h667c11 0 20-9 20-21v-416c0-12-9-21-20-21h-379l-208-138c-4-2-8-3-12-3z m-47 182h98c7 0 13-3 17-8s5-13 3-19l-30-83 161 107c4 2 8 3 12 3h364v375h-625v-375z m869-599c-4 0-8 1-11 3l-209 138h-337c-11 0-21 9-21 21v396c0 11 10 21 21 21s21-10 21-21v-375h322c4 0 8-1 12-4l161-106-30 82c-2 6-1 13 3 19 4 6 10 9 17 9h98v417h-250c-11 0-20 9-20 20s9 21 20 21h271c12 0 21-9 21-21v-458c0-12-9-21-21-21h-89l41-113c3-9 0-18-7-24-4-3-8-4-13-4z m-328 849h-458c-11 0-21 10-21 21 0 12 10 21 21 21h458c12 0 21-9 21-21 0-11-9-21-21-21z m0-83h-458c-11 0-21 9-21 21 0 11 10 21 21 21h458c12 0 21-10 21-21 0-12-9-21-21-21z m-208-83h-250c-11 0-21 9-21 21 0 11 10 20 21 20h250c12 0 21-9 21-20 0-12-9-21-21-21z m500-250h-417c-11 0-20 9-20 21 0 11 9 20 20 20h417c12 0 21-9 21-20 0-12-9-21-21-21z m0-84h-417c-11 0-20 10-20 21 0 12 9 21 20 21h417c12 0 21-9 21-21 0-11-9-21-21-21z m-167-83h-250c-11 0-20 9-20 21 0 11 9 21 20 21h250c12 0 21-10 21-21 0-12-9-21-21-21z" horiz-adv-x="1000" />

<glyph glyph-name="user" unicode="&#xe820;" d="M495 147c-124 0-224 134-234 253-28 8-53 31-53 59v84c0 26 26 45 42 54v71c0 79 63 143 142 146 16 6 82 31 150 31 107 0 166-63 166-177v-65c42-8 42-41 42-60v-84c0-29-13-50-34-58-8-124-100-254-221-254z m47 656c-68 0-137-29-138-29-2-1-5-2-8-2-58 0-104-47-104-104v-84c0-8-5-15-13-19-14-6-28-18-29-22l0-84c0-9 18-20 31-20 12 0 21-10 21-21 0-103 89-229 193-229 101 0 180 123 180 229 0 11 9 21 20 21 9 0 13 7 13 20v84c0 21 0 21-20 21-12 0-21 9-21 20v84c0 91-41 135-125 135z m-479-948c-12 0-21 9-21 21v42c0 120 96 208 229 208h51l56 83c6 9 19 12 29 6 9-7 12-20 5-29l-61-92c-4-6-11-10-18-10h-62c-110 0-188-68-188-166v-42c0-12-9-21-20-21z m875 0c-12 0-21 9-21 21v42c0 98-76 166-184 166h-63c-7 0-13 4-17 9l-68 99c-6 9-4 22 6 29 9 6 22 4 29-6l61-89h52c133 0 225-86 225-208v-42c0-12-9-21-20-21z m-438 125c-4 0-8 1-11 3l-167 105c-9 6-12 19-6 28 6 10 19 13 28 7l156-97 159 97c10 6 23 3 29-7 6-10 3-23-7-29l-170-104c-3-2-7-3-11-3z" horiz-adv-x="1000" />

<glyph glyph-name="close" unicode="&#xe821;" d="M982-43l-394 393 394 393c24 25 24 64 0 89-25 24-64 24-89 0l-393-394-393 394c-25 24-64 24-89 0-24-25-24-64 0-89l394-393-394-393c-24-25-24-64 0-89 25-24 64-24 89 0l393 394 393-394c25-24 64-24 89 0 24 25 24 64 0 89z" horiz-adv-x="1000" />

<glyph glyph-name="diamond" unicode="&#xe822;" d="M982 435c0 0-145 241-145 241-8 14-29 26-45 26h-580c-16 0-37-12-45-26l-145-241h0c0 0-8-16 6-33l454-518c5-6 13-9 20-9 7 0 14 3 20 9l453 517c0 1 0 1 0 1 15 17 7 33 7 33z m-620-3l57 240h166l57-240h-280z m284-30l-144-460-144 460h288z m-453 259c3 5 13 11 19 11h176l-57-240h-276l138 229z m133-259l144-459-401 459h257z m208-458l144 458h257l-401-458z m139 488l-57 240h176c6 0 16-6 19-11l138-229h-276z" horiz-adv-x="1000" />

<glyph glyph-name="infinite-2" unicode="&#xe823;" d="M881 530c0-45-15-87-40-120-12-15-25-29-40-40-34-25-75-40-120-40h-362c-88 0-159-72-159-160s72-160 160-160c88 0 160 72 160 160v52l-46-46c-7-8-20-8-28 0-8 8-7 20 0 28l80 80c8 8 21 8 29 0l80-80c8-8 8-20 0-28-4-4-9-6-14-6s-11 2-15 6l-46 46v-52c0-45-15-87-40-120-12-15-26-29-41-40-33-25-75-40-120-40s-86 15-120 40c-15 11-28 25-40 40-25 33-40 75-40 120s15 87 40 120c12 15 25 29 40 40 34 25 75 40 120 40h362c88 0 160 72 160 160s-72 160-161 160-160-72-160-160v-52l46 46c8 8 21 8 29 0 7-8 8-20 0-28l-74-74-6-6c-4-4-9-6-14-6s-11 2-14 6l-6 6-74 74c-8 8-8 20 0 28 7 8 20 8 27 0l46-46v52c0 45 15 87 40 120 12 15 25 29 41 40 33 25 75 40 120 40s86-15 120-40c15-11 28-25 40-40 25-33 40-75 40-120z" horiz-adv-x="1000" />

<glyph glyph-name="download" unicode="&#xe824;" d="M674 32h-332c-51 0-92 41-92 92v331c0 51 41 93 92 93 10 0 19-9 19-19 0-10-9-18-19-18-30 0-55-25-55-56v-331c0-31 25-55 55-55h332c30 0 55 24 55 55v331c0 31-25 56-55 56-10 0-19 8-19 18 0 10 9 19 19 19 51 0 92-42 92-93v-331c0-51-41-92-92-92z m-92 590l-60 60c-4 4-9 6-14 5-5 1-10-1-14-5l-60-60c-7-7-7-19 0-26 4-3 8-5 13-5 5 0 9 2 13 5l28 28v-439c0-10 8-18 18-18 11 0 19 8 19 18v442l31-31c3-3 8-5 13-5 5 0 9 2 13 5 7 8 7 19 0 26z" horiz-adv-x="1000" />

<glyph glyph-name="arrowup" unicode="&#xe825;" d="M537 548l321-321c20-21 20-54 0-74-20-21-54-21-74 0l-284 284-284-284c-20-21-53-21-74 0-20 20-20 53 0 74l321 321c10 10 24 15 37 15s27-5 37-15z" horiz-adv-x="1000" />

<glyph glyph-name="doc" unicode="&#xe826;" d="M819 638q16-16 27-42t11-50v-642q0-23-15-38t-38-16h-750q-23 0-38 16t-16 38v892q0 23 16 38t38 16h500q22 0 49-11t42-27z m-248 136v-210h210q-5 16-12 23l-175 175q-6 7-23 12z m215-853v572h-232q-23 0-38 15t-16 38v233h-429v-858h715z m-572 483q0 7 5 12t13 5h393q8 0 13-5t5-12v-36q0-8-5-13t-13-5h-393q-8 0-13 5t-5 13v36z m411-125q8 0 13-5t5-13v-36q0-8-5-13t-13-5h-393q-8 0-13 5t-5 13v36q0 8 5 13t13 5h393z m0-143q8 0 13-5t5-13v-36q0-8-5-13t-13-5h-393q-8 0-13 5t-5 13v36q0 8 5 13t13 5h393z" horiz-adv-x="857.1" />

<glyph glyph-name="logout" unicode="&#xe827;" d="M93 675l466 0 0 23-489 0 0-696 489 0 0 23-466 0z m592-80l-23-22 206-207-683 0 0-32 683 0-206-206 23-23 245 245z" horiz-adv-x="1000" />

<glyph glyph-name="bell" unicode="&#xe828;" d="M479-67c46 0 84 38 84 84h-167c0-46 37-84 83-84z m271 250v230c0 129-87 233-208 262v29c0 34-29 63-63 63-33 0-62-29-62-63v-29c-121-29-209-133-209-262v-230l-83-83v-42h708v42l-83 83z" horiz-adv-x="1000" />

<glyph glyph-name="facebook-rect" unicode="&#xe829;" d="M1000 761v-824q0-36-26-62t-62-26h-824q-36 0-62 26t-26 62v824q0 36 26 62t62 26h824q36 0 62-26t26-62z m-187-160l20 118q-43 15-143 15-79 0-123-58-26-34-26-119v-78h-79v-115h79v-400h149v400h118l9 115h-127v90q0 42 59 42 31 0 64-10z" horiz-adv-x="1000" />

<glyph glyph-name="twitter" unicode="&#xe82a;" d="M904 622q-37-54-90-93 0-8 0-23 0-73-21-145t-64-139-103-117-144-82-181-30q-151 0-276 81 19-2 43-2 126 0 224 77-59 1-105 36t-64 89q19-3 34-3 24 0 48 6-63 13-104 62t-41 115v2q38-21 82-23-37 25-59 64t-22 86q0 49 25 91 68-83 164-133t208-55q-5 21-5 41 0 75 53 127t127 53q79 0 132-57 61 12 114 44-20-64-79-100 52 6 104 28z" horiz-adv-x="928.6" />

<glyph glyph-name="gplus" unicode="&#xe82b;" d="M410 406q0-20 18-40t43-37 51-41 43-59 18-79q0-50-27-96-40-68-118-101t-166-32q-74 0-138 24t-95 76q-21 34-21 73 0 46 25 84t66 64q73 46 225 56-18 24-26 41t-9 41q0 20 12 48-26-3-38-3-83 0-139 54t-57 137q0 45 20 88t55 73q43 37 102 55t122 18h233l-77-49h-73q41-35 62-74t21-90q0-40-13-72t-33-52-39-36-33-34-14-37z m-81 53q21 0 43 10t37 24q30 32 30 89 0 32-10 69t-27 73-47 57-65 23q-24 0-46-11t-37-29q-26-33-26-89 0-26 5-55t18-57 29-52 42-37 54-15z m1-487q32 0 62 7t55 22 41 41 15 61q0 14-4 27t-8 24-15 23-16 19-22 20-20 16-23 16-21 15q-8 1-26 1-30 0-59-4t-60-14-54-25-38-42-15-59q0-39 19-69t51-46 67-25 71-8z m452 489h119v-60h-119v-122h-59v122h-118v60h118v121h59v-121z" horiz-adv-x="928.6" />

<glyph glyph-name="github" unicode="&#xe82c;" d="M357 171q0-22-7-45t-24-43-40-19-41 19-24 43-7 45 7 46 24 43 41 19 40-19 24-43 7-46z m357 0q0-22-7-45t-24-43-40-19-41 19-24 43-7 45 7 46 24 43 41 19 40-19 24-43 7-46z m90 0q0 67-39 114t-104 47q-23 0-109-12-40-6-88-6t-87 6q-85 12-109 12-66 0-104-47t-39-114q0-49 18-85t45-58 68-33 78-17 83-4h94q46 0 83 4t78 17 69 33 45 58 18 85z m125 99q0-116-34-185-22-43-59-74t-79-48-95-27-96-12-93-3q-43 0-79 2t-82 7-85 17-77 28-67 46-48 64q-35 69-35 185 0 132 76 221-15 45-15 94 0 65 28 122 61 0 106-22t106-69q82 20 172 20 83 0 156-18 59 46 105 67t105 22q29-57 29-122 0-48-15-93 76-90 76-222z" horiz-adv-x="928.6" />

<glyph glyph-name="linkedin-squared" unicode="&#xe82d;" d="M132 61h129v387h-129v-387z m138 507q-1 29-21 48t-51 19-53-19-21-48q0-29 20-48t52-19h0q33 0 53 19t21 48z m326-507h129v222q0 86-41 130t-108 44q-75 0-116-65h1v56h-129q2-37 0-387h129v216q0 22 4 32 8 19 25 33t41 14q65 0 65-88v-207z m261 557v-536q0-66-47-113t-114-48h-535q-67 0-114 48t-47 113v536q0 66 47 113t114 48h535q67 0 114-48t47-113z" horiz-adv-x="857.1" />

<glyph glyph-name="openid" unicode="&#xe82e;" d="M606 850v-857l-152-72q-127 12-231 57t-163 117-60 152q0 78 56 147t154 114 218 61v-96q-121-21-199-84t-78-142q0-85 86-149t217-81v759z m373-325l21-217-293 63 82 47q-66 39-156 55v96q154-19 268-88z" horiz-adv-x="1000" />

<glyph glyph-name="reload" unicode="&#xe82f;" d="M186 140l116 116 0-292-276 16 88 86q-116 122-114 290t120 288q100 100 240 116l4-102q-100-16-172-88-88-88-90-213t84-217z m332 598l276-16-88-86q116-122 114-290t-120-288q-96-98-240-118l-2 104q98 16 170 88 88 88 90 213t-84 217l-114-116z" horiz-adv-x="820" />

<glyph glyph-name="help" unicode="&#xe830;" d="M500 82v107q0 8-5 13t-13 5h-107q-8 0-13-5t-5-13v-107q0-8 5-13t13-5h107q8 0 13 5t5 13z m143 375q0 49-31 91t-77 65-95 23q-136 0-207-119-9-14 4-24l74-55q4-4 10-4 9 0 14 7 30 38 48 51 19 14 48 14 27 0 48-15t21-33q0-21-11-34t-38-25q-35-16-65-48t-29-70v-20q0-8 5-13t13-5h107q8 0 13 5t5 13q0 10 12 27t30 28q18 10 28 16t25 19 25 27 16 34 7 45z m214-107q0-117-57-215t-156-156-215-58-216 58-155 156-58 215 58 215 155 156 216 58 215-58 156-156 57-215z" horiz-adv-x="857.1" />

<glyph glyph-name="ok" unicode="&#xe831;" d="M932 534q0-22-15-38l-404-404-76-76q-16-15-38-15t-38 15l-76 76-202 202q-15 16-15 38t15 38l76 76q16 16 38 16t38-16l164-165 366 367q16 16 38 16t38-16l76-76q15-16 15-38z" horiz-adv-x="1000" />

<glyph glyph-name="mail" unicode="&#xe832;" d="M580 306l258-267-789 0 259 264 135-127z m-517 355l760 0-380-362z m566-309l257 242 0-508z m-629-266l0 508 259-243z" horiz-adv-x="886" />

<glyph glyph-name="imported" unicode="&#xe833;" d="M230 425l304 301c25 25 25 65 0 90-26 25-67 25-92 0l-414-410c-25-25-25-65 0-90l414-410c13-13 29-19 46-19 16 0 33 6 46 19 25 25 25 65 0 90l-304 301 1105 0c36 0 65 29 65 64 0 35-29 64-65 64l-1105 0z" horiz-adv-x="1409" />

<glyph glyph-name="circle-empty" unicode="&#xe834;" d="M429 654q-83 0-153-41t-110-111-41-152 41-152 110-111 153-41 152 41 110 111 41 152-41 152-110 111-152 41z m428-304q0-117-57-215t-156-156-215-58-216 58-155 156-58 215 58 215 155 156 216 58 215-58 156-156 57-215z" horiz-adv-x="857.1" />

<glyph glyph-name="dot-circled" unicode="&#xe835;" d="M571 350q0-59-41-101t-101-42-101 42-42 101 42 101 101 42 101-42 41-101z m-142 304q-83 0-153-41t-110-111-41-152 41-152 110-111 153-41 152 41 110 111 41 152-41 152-110 111-152 41z m428-304q0-117-57-215t-156-156-215-58-216 58-155 156-58 215 58 215 155 156 216 58 215-58 156-156 57-215z" horiz-adv-x="857.1" />

<glyph glyph-name="flow-tree" unicode="&#xe836;" d="M868 112q72-34 72-112 0-50-35-85t-85-35-85 35-35 85q0 78 72 112l0 114q0 78-76 78l-100 0q-44 0-78 12l0-204q72-34 72-112 0-50-35-85t-85-35-85 35-35 85q0 78 72 112l0 204q-30-12-76-12l-100 0q-34 0-53-19t-22-33-3-26l0-114q72-34 72-112 0-50-35-85t-85-35-85 35-35 85q0 78 72 112l0 114q0 64 43 118t131 54l100 0q76 0 76 52l0 140q-72 34-72 110 0 50 35 85t85 35 85-35 35-85q0-76-72-110l0-140q0-52 78-52l100 0q86 0 129-54t43-118l0-114z m-678-112q0 30-21 50t-49 20-48-20-20-50q0-28 20-48t48-20 49 20 21 48z m212 700q0-28 20-48t48-20 49 20 21 48q0 30-21 50t-49 20-48-20-20-50z m138-700q0 30-21 50t-49 20-48-20-20-50q0-28 20-48t48-20 49 20 21 48z m280-68q28 0 49 20t21 48q0 30-21 50t-49 20-48-20-20-50q0-28 20-48t48-20z" horiz-adv-x="940" />

<glyph glyph-name="info" unicode="&#xe837;" d="M500 850c-276 0-500-224-500-500 0-276 224-500 500-500 276 0 500 224 500 500 0 276-224 500-500 500z m0-951c-249 0-451 202-451 451 0 249 202 451 451 451 249 0 451-202 451-451 0-249-202-451-451-451z m144 178v-66c0-2-2-5-5-5h-243c-3 0-5 3-5 5v66c0 3 2 5 5 5h70v353h-71c-3 0-5 3-5 5v68c0 3 2 5 5 5h166c3 0 5-2 5-5v-426h73c3 0 5-2 5-5z m-221 560c0 42 34 76 76 76 42 0 76-34 76-76s-34-77-76-77c-42 0-76 35-76 77z" horiz-adv-x="1000" />

<glyph glyph-name="voting-day" unicode="&#xe838;" d="M824 219c0 2-1 3-1 5 0 0-1 1-1 1 0 0 0 1 0 1l-134 220c-2 4-6 7-11 7h-69l155 155c5 5 5 13 0 19l-219 219c-6 5-14 5-19 0l-288-288c-5-5-5-13 0-19l86-86h0c-4 0-9-3-11-7l-134-220c0 0 0-1 0-1 0 0-1-1-1-1 0-2-1-3-1-5 0 0 0 0 0 0v-356c0-7 6-13 14-13h620c8 0 14 6 14 13v356c0 0 0 0 0 0z m-290 599l201-201-269-269-101 101-100 100 269 269z m-203-392h19l106-106c2-1 3-2 5-3 1-1 3-1 5-1h115c8 0 14 6 14 13 0 8-6 14-14 14h-83l83 83h88l118-193h-574l118 193z m466-549h-594v329h594v-329z" horiz-adv-x="1000" />

<glyph glyph-name="attach" unicode="&#xe839;" d="M244-140q-102 0-170 72-72 70-74 166t84 190l496 496q80 80 174 54 44-12 79-47t47-79q26-96-54-176l-474-474q-40-40-88-46-48-4-80 28-30 24-27 74t47 92l332 334q24 26 50 0t0-50l-332-332q-44-44-20-70 12-8 24-6 24 4 46 26l474 474q50 50 34 108-16 60-76 76-54 14-108-36l-494-494q-66-76-64-143t52-117q50-48 117-50t141 62l496 494q24 24 50 0 26-22 0-48l-496-496q-82-82-186-82z" horiz-adv-x="939" />

<glyph glyph-name="yammer" unicode="&#xe83a;" d="M285 291c42 103 93 232 138 353 15 43 29 122 80 123 28 1 51-23 53-45 3-26-20-70-33-101-62-156-130-318-193-474-43-108-69-215-214-220-41-2-82 3-92 31-9 25 5 56 25 63 36 13 71-1 98 11 53 23 54 69 82 121-63 157-138 329-205 497-9 23-26 51-23 76 5 38 54 62 89 37 25-17 40-83 53-115 48-119 97-246 142-357z m450 222c26 11 46 22 70 34 22 12 57 23 70 37 33 39-13 106-58 81-43-25-86-57-129-89-41-31-89-61-111-107 52-6 108 21 158 44z m62-214c27-3 57-3 86-4 31-2 64-8 86 0 49 16 35 95-18 98-3 1-3-2-6-2-72-3-164-17-229-31-23-5-50-5-63-24 33-29 85-32 144-37z m-169-148c43-36 84-65 130-97 24-17 46-39 69-43 33-5 71 28 56 70-7 19-39 31-62 43-28 15-49 24-72 35-62 29-107 55-170 51 4-27 30-43 49-59z" horiz-adv-x="1000" />

<glyph glyph-name="down" unicode="&#xe83b;" d="M0 283q0 25 18 43t44 18 42-18l244-243v642q0 25 18 43t43 18 43-18 18-43v-642l243 243q18 18 43 18t43-18q18-18 18-43t-18-44l-390-390-391 390q-18 20-18 44z" horiz-adv-x="817.4" />

<glyph glyph-name="up" unicode="&#xe83c;" d="M0 354q0 26 18 44l391 390 390-390q18-18 18-44 0-26-18-43-18-18-43-18t-43 18l-243 243v-642q0-25-18-43t-43-18q-26 0-44 18t-17 43v642l-244-243q-18-18-43-18t-43 18q-18 17-18 43z" horiz-adv-x="817.4" />
</font>
</defs>
</svg>
