<?xml version="1.0" encoding="iso-8859-1"?>
<!-- Generator: Adobe Illustrator 19.0.0, SVG Export Plug-In . SVG Version: 6.00 Build 0)  -->
<svg version="1.1" id="Layer_1" xmlns="http://www.w3.org/2000/svg" xmlns:xlink="http://www.w3.org/1999/xlink" x="0px" y="0px"
	 viewBox="0 0 508 508" style="enable-background:new 0 0 508 508;" xml:space="preserve">
<circle style="fill:#90DFAA;" cx="254" cy="254" r="254"/>
<path style="fill:#2C9984;" d="M104,459.2c42,30.4,94,48.8,150,48.8s108-18.4,150-48.8H104z"/>
<rect x="171.6" y="147.2" style="fill:#E6E9EE;" width="164.4" height="14.4"/>
<g>
	<path style="fill:#FFFFFF;" d="M353.2,147.2C352,93.6,308,50,254,50l0,0c-54,0-98,43.2-99.2,97.2H353.2z"/>
	<path style="fill:#FFFFFF;" d="M344.4,360.8H163.6c-8.8,0-15.6-7.2-15.6-15.6v-168c0-8.8,7.2-15.6,15.6-15.6h181.2
		c8.8,0,15.6,7.2,15.6,15.6v167.6C360,353.6,353.2,360.8,344.4,360.8z"/>
</g>
<circle style="fill:#324A5E;" cx="321.6" cy="92" r="37.2"/>
<circle style="fill:#FFFFFF;" cx="321.6" cy="92" r="28.4"/>
<circle style="fill:#84DBFF;" cx="321.6" cy="92" r="14.4"/>
<circle style="fill:#324A5E;" cx="321.6" cy="92" r="10"/>
<circle style="fill:#FFFFFF;" cx="315.6" cy="88.4" r="4.8"/>
<circle style="fill:#324A5E;" cx="186.4" cy="92" r="37.2"/>
<circle style="fill:#FFFFFF;" cx="186.4" cy="92" r="28.4"/>
<circle style="fill:#84DBFF;" cx="186.4" cy="92" r="14.4"/>
<circle style="fill:#324A5E;" cx="186.4" cy="92" r="10"/>
<circle style="fill:#FFFFFF;" cx="180.4" cy="88.4" r="4.8"/>
<rect x="380.473" y="185.059" transform="matrix(-0.7013 0.7129 -0.7129 -0.7013 812.0826 101.0357)" style="fill:#2B3B4E;" width="8.8" height="71.202"/>
<path style="fill:#E6E9EE;" d="M435.2,238c7.6,7.6,8.8,19.2,3.6,28.4l-18-17.6l-8,8l18,17.6c-8.8,5.6-20.4,4.4-28.4-3.2
	c-9.2-8.8-9.2-23.6-0.4-32.8C411.6,229.2,426,229.2,435.2,238z"/>
<circle style="fill:#324A5E;" cx="360.8" cy="197.2" r="16"/>
<circle style="fill:#FFFFFF;" cx="403.2" cy="238.8" r="11.6"/>
<rect x="119.079" y="185.054" transform="matrix(0.7013 0.7129 -0.7129 0.7013 194.1867 -22.1129)" style="fill:#2B3B4E;" width="8.8" height="71.202"/>
<path style="fill:#E6E9EE;" d="M72.8,238c-7.6,7.6-9.2,19.2-3.6,28.4l18-17.6l8,8l-18,17.6c8.8,5.6,20.4,4.4,28.4-3.2
	c9.2-8.8,9.2-23.6,0.4-32.8C96.4,229.2,82,229.2,72.8,238z"/>
<circle style="fill:#324A5E;" cx="147.2" cy="197.2" r="16"/>
<circle style="fill:#FFFFFF;" cx="104.8" cy="238.8" r="11.6"/>
<rect x="301.2" y="369.6" style="fill:#2B3B4E;" width="20" height="63.2"/>
<path style="fill:#E6E9EE;" d="M332.8,360.8H290v2c0,8.4,6.8,15.2,15.2,15.2h12c8.4,0,15.2-6.8,15.2-15.2v-2H332.8z"/>
<path style="fill:#FFFFFF;" d="M334.4,443.2c0,12.8-10.4,14.4-22.8,14.4s-22.8-2-22.8-14.4c0-12.8,10.4-22.8,22.8-22.8
	S334.4,430.8,334.4,443.2z"/>
<rect x="186.8" y="369.6" style="fill:#2B3B4E;" width="20" height="63.2"/>
<path style="fill:#E6E9EE;" d="M218,360.8h-42.8v2c0,8.4,6.8,15.2,15.2,15.2h12c8.4,0,15.2-6.8,15.2-15.2v-2H218z"/>
<path style="fill:#FFFFFF;" d="M219.6,443.2c0,12.8-10.4,14.4-22.8,14.4c-12.8,0-22.8-2-22.8-14.4c0-12.8,10.4-22.8,22.8-22.8
	C209.2,420.4,219.6,430.8,219.6,443.2z"/>
<path style="fill:#324A5E;" d="M293.2,320.4h-78.4c-4.4,0-8.4-3.6-8.4-8.4V193.6c0-4.4,3.6-8.4,8.4-8.4h78c4.4,0,8.4,3.6,8.4,8.4
	V312C301.2,316.4,297.6,320.4,293.2,320.4z"/>
<path style="fill:#FF7058;" d="M225.2,215.2L225.2,215.2c-5.2,0-9.2-4-9.2-9.2l0,0c0-5.2,4-9.2,9.2-9.2l0,0c5.2,0,9.2,4,9.2,9.2l0,0
	C234.4,211.2,230.4,215.2,225.2,215.2z"/>
<g>
	<path style="fill:#FFD05B;" d="M254,215.2L254,215.2c-5.2,0-9.2-4-9.2-9.2l0,0c0-5.2,4-9.2,9.2-9.2l0,0c5.2,0,9.2,4,9.2,9.2l0,0
		C263.2,211.2,259.2,215.2,254,215.2z"/>
	<path style="fill:#FFD05B;" d="M282.8,215.2L282.8,215.2c-5.2,0-9.2-4-9.2-9.2l0,0c0-5.2,4-9.2,9.2-9.2l0,0c5.2,0,9.2,4,9.2,9.2
		l0,0C292.4,211.2,288,215.2,282.8,215.2z"/>
</g>
<g>
	<path style="fill:#2B3B4E;" d="M282.8,244.4h-57.6c-4,0-7.6-3.2-7.6-7.6l0,0c0-4,3.2-7.6,7.6-7.6h57.6c4,0,7.6,3.2,7.6,7.6l0,0
		C290.4,240.8,286.8,244.4,282.8,244.4z"/>
	<path style="fill:#2B3B4E;" d="M282.8,273.6h-57.6c-4,0-7.6-3.2-7.6-7.6l0,0c0-4,3.2-7.6,7.6-7.6h57.6c4,0,7.6,3.2,7.6,7.6l0,0
		C290.4,270.4,286.8,273.6,282.8,273.6z"/>
	<path style="fill:#2B3B4E;" d="M282.8,302.8h-57.6c-4,0-7.6-3.2-7.6-7.6l0,0c0-4,3.2-7.6,7.6-7.6h57.6c4,0,7.6,3.2,7.6,7.6l0,0
		C290.4,299.6,286.8,302.8,282.8,302.8z"/>
</g>
<g>
</g>
<g>
</g>
<g>
</g>
<g>
</g>
<g>
</g>
<g>
</g>
<g>
</g>
<g>
</g>
<g>
</g>
<g>
</g>
<g>
</g>
<g>
</g>
<g>
</g>
<g>
</g>
<g>
</g>
</svg>
