<?xml version="1.0" encoding="UTF-8" standalone="no"?>
<svg
   xmlns:dc="http://purl.org/dc/elements/1.1/"
   xmlns:cc="http://creativecommons.org/ns#"
   xmlns:rdf="http://www.w3.org/1999/02/22-rdf-syntax-ns#"
   xmlns:svg="http://www.w3.org/2000/svg"
   xmlns="http://www.w3.org/2000/svg"
   xmlns:sodipodi="http://sodipodi.sourceforge.net/DTD/sodipodi-0.dtd"
   xmlns:inkscape="http://www.inkscape.org/namespaces/inkscape"
   version="1.1"
   id="Layer_1"
   x="0px"
   y="0px"
   width="100px"
   height="100px"
   viewBox="0 0 100 100"
   enable-background="new 0 0 100 100"
   xml:space="preserve"
   inkscape:version="0.48.4 r9939"
   sodipodi:docname="map.svg"><metadata
     id="metadata31"><rdf:RDF><cc:Work
         rdf:about=""><dc:format>image/svg+xml</dc:format><dc:type
           rdf:resource="http://purl.org/dc/dcmitype/StillImage" /></cc:Work></rdf:RDF></metadata><defs
     id="defs29" /><sodipodi:namedview
     pagecolor="#ffffff"
     bordercolor="#666666"
     borderopacity="1"
     objecttolerance="10"
     gridtolerance="10"
     guidetolerance="10"
     inkscape:pageopacity="0"
     inkscape:pageshadow="2"
     inkscape:window-width="1600"
     inkscape:window-height="880"
     id="namedview27"
     showgrid="false"
     inkscape:zoom="8"
     inkscape:cx="50"
     inkscape:cy="50"
     inkscape:window-x="1917"
     inkscape:window-y="-3"
     inkscape:window-maximized="1"
     inkscape:current-layer="Layer_1" /><g
     id="g3"
     transform="matrix(0,1,-1,0,101,0.99999993)"><g
       id="g5"><path
         d="m 19.3,48.049 c -6.816,0 -12.362,-5.546 -12.362,-12.362 0,-6.817 5.546,-12.363 12.362,-12.363 6.816,0 12.362,5.546 12.362,12.363 0,6.816 -5.546,12.362 -12.362,12.362 z m 0,-19.725 c -4.06,0 -7.362,3.303 -7.362,7.363 0,4.06 3.303,7.362 7.362,7.362 4.059,0 7.362,-3.303 7.362,-7.362 0,-4.061 -3.303,-7.363 -7.362,-7.363 z"
         id="path7"
         inkscape:connector-curvature="0"
         style="fill:#000000" /></g><g
       id="g9"><path
         d="m 50,48.049 c -6.816,0 -12.362,-5.546 -12.362,-12.362 0,-6.817 5.546,-12.363 12.362,-12.363 6.816,0 12.362,5.546 12.362,12.363 0,6.816 -5.546,12.362 -12.362,12.362 z m 0,-19.725 c -4.06,0 -7.362,3.303 -7.362,7.363 0,4.06 3.303,7.362 7.362,7.362 4.059,0 7.362,-3.303 7.362,-7.362 0,-4.061 -3.302,-7.363 -7.362,-7.363 z"
         id="path11"
         inkscape:connector-curvature="0"
         style="fill:#000000" /></g><g
       id="g13"><path
         d="m 50,78.676 c -6.816,0 -12.362,-5.545 -12.362,-12.363 0,-6.816 5.546,-12.361 12.362,-12.361 6.816,0 12.362,5.545 12.362,12.361 0,6.818 -5.546,12.363 -12.362,12.363 z m 0,-19.725 c -4.06,0 -7.362,3.303 -7.362,7.361 0,4.061 3.303,7.363 7.362,7.363 4.059,0 7.362,-3.303 7.362,-7.363 0,-4.058 -3.302,-7.361 -7.362,-7.361 z"
         id="path15"
         inkscape:connector-curvature="0"
         style="fill:#000000" /></g><g
       id="g17"><path
         d="m 80.7,48.049 c -6.816,0 -12.362,-5.546 -12.362,-12.362 0,-6.817 5.546,-12.363 12.362,-12.363 6.816,0 12.362,5.546 12.362,12.363 0.001,6.816 -5.545,12.362 -12.362,12.362 z m 0,-19.725 c -4.06,0 -7.362,3.303 -7.362,7.363 0,4.06 3.303,7.362 7.362,7.362 4.059,0 7.362,-3.303 7.362,-7.362 0.001,-4.061 -3.302,-7.363 -7.362,-7.363 z"
         id="path19"
         inkscape:connector-curvature="0"
         style="fill:#000000" /></g><path
       d="m 78.2,45.807 v 8.645 c 0,5.238 -4.262,9.5 -9.5,9.5 h -9.283 v 5 H 68.7 c 7.995,0 14.5,-6.506 14.5,-14.5 v -8.645 h -5 z"
       id="path21"
       inkscape:connector-curvature="0"
       style="fill:#000000" /><path
       d="M 41.543,63.951 H 31.171 c -5.238,0 -9.5,-4.262 -9.5,-9.5 v -8.645 h -5 v 8.645 c 0,7.994 6.505,14.5 14.5,14.5 h 10.372 v -5 z"
       id="path23"
       inkscape:connector-curvature="0"
       style="fill:#000000" /><rect
       x="47.5"
       y="44.512001"
       width="5"
       height="11.658"
       id="rect25"
       style="fill:#000000" /></g><path
     style="fill:#666666;fill-opacity:1"
     d="m 64.2625,93.94171 c -2.920658,-0.356955 -5.00474,-1.269528 -7.152248,-3.131808 -1.553572,-1.34723 -3.10946,-3.842896 -3.618563,-5.804228 l -0.215918,-0.831828 -4.319136,-0.05884 C 45.503004,84.06796 44.449636,84.013565 43.7,83.843559 38.787144,82.729396 34.977097,79.5393 33.167678,75.025 32.288911,72.832571 32.184519,72.069359 32.091586,67.157622 L 32.0125,62.977745 31.325,62.804442 c -0.86708,-0.21857 -2.515408,-0.985932 -3.461439,-1.611436 -1.782531,-1.178589 -3.586505,-3.329512 -4.404349,-5.251417 -0.80089,-1.882064 -0.946915,-2.65179 -0.944583,-4.979089 0.0024,-2.378409 0.173921,-3.242465 0.997669,-5.025359 1.49486,-3.235429 4.480545,-5.818189 7.789279,-6.738099 l 0.773423,-0.21503 0,-3.403762 c 0,-3.685783 0.129156,-5.467301 0.502427,-6.93025 1.319186,-5.170239 5.333798,-9.137037 10.647897,-10.521082 0.947606,-0.246802 1.426948,-0.274565 5.550561,-0.321481 l 4.513386,-0.05135 0.212373,-0.763865 C 54.2014,14.475339 55.816226,12.116602 57.95,10.494615 c 1.053702,-0.8009706 3.032386,-1.7573314 4.375,-2.1145758 1.408016,-0.374647 4.48188,-0.4078201 5.75,-0.062054 3.864334,1.0536503 6.621292,3.2688438 8.248086,6.6272698 0.843066,1.740462 1.131039,2.903884 1.210938,4.892245 0.05313,1.322276 0.01894,1.848984 -0.18353,2.827327 -0.873895,4.222603 -3.801975,7.648992 -7.833284,9.166373 -2.624465,0.987845 -5.902658,0.963002 -8.56721,-0.06492 -3.714883,-1.433123 -6.413105,-4.45044 -7.537394,-8.428775 l -0.176627,-0.625 -4.236739,0 c -4.083768,0 -4.27059,0.01051 -5.17424,0.290971 -3.19777,0.992491 -5.648061,3.522714 -6.522906,6.735689 -0.2378,0.873352 -0.27079,1.39303 -0.321142,5.058884 l -0.05612,4.085543 0.543831,0.138302 c 2.391799,0.608253 4.352209,1.752951 6.07181,3.545371 1.469042,1.531251 2.563477,3.46214 3.04033,5.36399 l 0.148872,0.59375 3.27403,0 3.274028,0 0.167442,-0.65625 c 1.1243,-4.406469 4.889376,-7.957219 9.442321,-8.904823 1.292705,-0.26905 3.568135,-0.272167 4.840545,-0.0066 4.849729,1.012072 8.612146,4.796164 9.622449,9.677877 0.202473,0.978344 0.236665,1.505052 0.18353,2.827328 -0.0799,1.988361 -0.367872,3.151782 -1.210938,4.892245 -1.626794,3.358426 -4.383752,5.57362 -8.248086,6.62727 -1.275194,0.347695 -4.34529,0.312785 -5.75,-0.06538 C 59.535014,62.165524 57.14931,60.546046 55.432084,58.237536 54.58224,57.095074 54.032329,55.998157 53.570892,54.525 l -0.332805,-1.0625 -3.253333,-0.03329 -3.253334,-0.0333 -0.20884,0.845795 c -0.476036,1.927932 -2.001314,4.411412 -3.581115,5.830831 -1.581461,1.420909 -3.767674,2.564313 -5.535216,2.894953 l -0.481252,0.09002 0.05488,4.077492 c 0.0539,4.004673 0.06097,4.097586 0.395812,5.202494 0.54086,1.784724 1.097668,2.709876 2.449309,4.069605 1.020766,1.026872 1.354234,1.276031 2.375,1.774537 2.006206,0.979759 2.134811,0.999582 6.876017,1.05987 l 4.188517,0.05326 0.22602,-0.877385 c 0.436971,-1.696279 1.571585,-3.70992 2.876343,-5.104758 2.273829,-2.43081 5.681167,-3.911881 9.000968,-3.91246 1.206659,-2.5e-4 3.184786,0.391215 4.447451,0.880049 3.049129,1.180452 5.71842,3.859355 6.932595,6.957555 0.618836,1.579079 0.76526,2.47225 0.754061,4.599725 -0.0095,1.797522 -0.04485,2.113894 -0.349591,3.125 -0.841419,2.791792 -2.359559,4.981017 -4.598825,6.631714 -2.326182,1.714765 -5.685577,2.665931 -8.291056,2.347496 l 0,0 z m 3.384694,-5.219766 c 1.168916,-0.369538 2.493013,-1.237213 3.291262,-2.156752 0.627274,-0.722582 1.436815,-2.348905 1.625283,-3.265095 0.959958,-4.66662 -2.559562,-9.009376 -7.312494,-9.022927 -0.986053,-0.0028 -2.489258,0.385667 -3.465489,0.895599 -0.468802,0.244877 -1.142377,0.77516 -1.710756,1.34682 -1.493223,1.501841 -2.125,3.045731 -2.125,5.192911 0,2.061056 0.695419,3.76493 2.120362,5.195181 2.039699,2.047296 4.770972,2.701296 7.576832,1.814263 l 0,0 z M 36.419196,58.211999 c 2.654878,-0.625958 4.850816,-2.841779 5.483121,-5.532769 0.267208,-1.137193 0.174183,-3.05334 -0.199997,-4.119578 -0.797509,-2.272531 -2.799989,-4.118037 -5.12732,-4.725391 -1.060708,-0.276807 -2.869804,-0.275755 -3.83223,0.0022 -2.54853,0.736115 -4.578959,2.785771 -5.219622,5.26905 -0.24816,0.961896 -0.255118,2.881735 -0.01373,3.78879 0.346463,1.301895 0.918276,2.255943 1.991969,3.323527 1.097672,1.091426 2.077866,1.66329 3.398753,1.982898 0.972541,0.23532 2.547336,0.24035 3.519056,0.01124 l 0,-2e-6 z m 30.625,0 C 69.699074,57.586041 71.895012,55.37022 72.527317,52.67923 72.794525,51.542037 72.7015,49.62589 72.32732,48.559652 71.529811,46.287121 69.527331,44.441615 67.2,43.834261 c -1.019799,-0.266132 -2.808863,-0.266219 -3.800975,-1.25e-4 -2.512334,0.673682 -4.607289,2.776851 -5.250878,5.271466 -0.229511,0.889614 -0.25898,2.613287 -0.06103,3.569555 0.26606,1.285267 0.935811,2.450032 2.037124,3.542763 1.099785,1.091215 2.081632,1.663682 3.400895,1.982897 0.972541,0.23532 2.547336,0.24035 3.519056,0.01124 l 0,-5.6e-5 z M 67.2625,27.438865 c 2.231047,-0.550805 4.274499,-2.446466 5.06482,-4.698518 0.37418,-1.066237 0.467205,-2.982384 0.199997,-4.119577 -0.326255,-1.38849 -0.904498,-2.421109 -1.952317,-3.486424 -1.476389,-1.50104 -3.19358,-2.230651 -5.25,-2.230651 -2.081091,0 -3.680343,0.66988 -5.200755,2.178445 C 58.559967,16.634228 57.95,18.114009 57.95,20.35686 c 0,2.018736 0.716085,3.761784 2.123721,5.169419 0.794789,0.79479 1.999586,1.538121 3.022923,1.865073 1.192163,0.380893 2.743812,0.398589 4.165856,0.04751 z"
     id="path2993"
     inkscape:connector-curvature="0" /></svg>