<?xml version="1.0" encoding="UTF-8" standalone="no"?>
<svg
   xmlns:dc="http://purl.org/dc/elements/1.1/"
   xmlns:cc="http://creativecommons.org/ns#"
   xmlns:rdf="http://www.w3.org/1999/02/22-rdf-syntax-ns#"
   xmlns:svg="http://www.w3.org/2000/svg"
   xmlns="http://www.w3.org/2000/svg"
   xmlns:sodipodi="http://sodipodi.sourceforge.net/DTD/sodipodi-0.dtd"
   xmlns:inkscape="http://www.inkscape.org/namespaces/inkscape"
   version="1.1"
   id="Layer_1"
   x="0px"
   y="0px"
   width="100px"
   height="100px"
   viewBox="0 0 100 100"
   enable-background="new 0 0 100 100"
   xml:space="preserve"
   inkscape:version="0.48.4 r9939"
   sodipodi:docname="quotes.svg"><metadata
     id="metadata18"><rdf:RDF><cc:Work
         rdf:about=""><dc:format>image/svg+xml</dc:format><dc:type
           rdf:resource="http://purl.org/dc/dcmitype/StillImage" /></cc:Work></rdf:RDF></metadata><defs
     id="defs16" /><sodipodi:namedview
     pagecolor="#ffffff"
     bordercolor="#666666"
     borderopacity="1"
     objecttolerance="10"
     gridtolerance="10"
     guidetolerance="10"
     inkscape:pageopacity="0"
     inkscape:pageshadow="2"
     inkscape:window-width="1201"
     inkscape:window-height="818"
     id="namedview14"
     showgrid="false"
     inkscape:zoom="2.36"
     inkscape:cx="50"
     inkscape:cy="50"
     inkscape:window-x="0"
     inkscape:window-y="0"
     inkscape:window-maximized="0"
     inkscape:current-layer="Layer_1" /><g
     id="Captions" /><g
     id="g4"><path
       fill="#000000"
       d="M14.5,68.5v18h18v-9v-9h-9c0-4.971,4.029-9,9-9v-9C22.559,50.5,14.5,58.559,14.5,68.5z"
       id="path6" /><path
       fill="#000000"
       d="M41.5,68.5v18h18v-9v-9h-9c0-4.971,4.029-9,9-9v-9C49.559,50.5,41.5,58.559,41.5,68.5z"
       id="path8" /><path
       fill="#000000"
       d="M68.5,14.5v9v9h9c0,4.971-4.029,9-9,9v9c9.941,0,18-8.059,18-18v-18H68.5z"
       id="path10" /><path
       fill="#000000"
       d="M41.5,23.5v9h9c0,4.971-4.029,9-9,9v9c9.941,0,18-8.059,18-18v-18h-18V23.5z"
       id="path12" /></g><path
     style="fill:#666666;fill-opacity:1"
     d="m 14.841264,75.444915 c 0.175866,-12.083711 0.266605,-12.572998 3.132371,-16.890457 2.640215,-3.977652 7.237416,-6.852112 12.13286,-7.586229 l 2.012149,-0.301741 0,4.251733 0,4.251732 -1.377119,0.296565 c -3.785773,0.815273 -6.606046,3.711951 -7.320152,7.518463 l -0.295348,1.574341 4.496309,0 4.49631,0 0,8.898305 0,8.898305 -8.71809,0 -8.718089,0 0.158799,-10.911017 z"
     id="path2995"
     inkscape:connector-curvature="0" /><path
     style="fill:#666666;fill-opacity:1"
     d="m 41.955272,46.030354 0.120999,-4.352682 1.835165,-0.362084 c 2.408384,-0.475182 5.720764,-3.59872 6.382873,-6.018978 0.892127,-3.261063 0.996214,-3.177966 -3.98075,-3.177966 l -4.449152,0 0,-8.686441 0,-8.68644 8.68644,0 8.686441,0 0,9.868602 c 0,10.730056 -0.30472,12.881671 -2.338888,16.514806 -2.690829,4.805965 -7.433284,7.971446 -13.460077,8.984293 l -1.604049,0.269573 0.120998,-4.352683 z"
     id="path2997"
     inkscape:connector-curvature="0" /><path
     style="fill:#666666;fill-opacity:1"
     d="m 68.650119,46.030358 0.121067,-4.365091 1.483051,-0.248409 c 3.873316,-0.648773 6.698413,-3.620502 7.328839,-7.709231 l 0.245,-1.588983 -4.634377,0 -4.634377,0 0,-8.686441 0,-8.68644 8.898305,0 8.898305,0 -0.0025,9.004237 c -0.0014,4.952331 -0.184228,10.11413 -0.406395,11.470664 -1.274807,7.783863 -7.384257,13.688569 -15.390184,14.874417 l -2.027847,0.300367 0.121067,-4.36509 z"
     id="path2999"
     inkscape:connector-curvature="0" /><path
     style="fill:#666666;fill-opacity:1"
     d="m 41.944687,75.233051 c 0.130826,-11.058811 0.138145,-11.136881 1.270576,-13.553163 2.843843,-6.06794 7.680455,-9.762504 14.025964,-10.714072 l 1.996061,-0.299328 0,4.235097 0,4.235097 -1.82119,0.458581 c -1.001654,0.25222 -2.479408,0.894757 -3.283898,1.427862 -1.568425,1.039336 -3.793217,4.882707 -3.793217,6.552856 0,0.966201 0.07755,0.983341 4.449153,0.983341 l 4.449152,0 0,8.898305 0,8.898305 -8.712092,0 -8.712092,0 0.131583,-11.122881 z"
     id="path3001"
     inkscape:connector-curvature="0" /></svg>