<svg xmlns="http://www.w3.org/2000/svg" xmlns:xlink="http://www.w3.org/1999/xlink" version="1.1" id="Your_Icon" x="0px" y="0px" width="100px" height="100px" viewBox="0 0 100 100" enable-background="new 0 0 100 100" xml:space="preserve">
<path d="M14.207,65.863c-1.433,1.461-4.09,1.118-5.937-0.764l0,0c-1.846-1.882-2.181-4.593-0.749-6.054l20.751-21.163  c1.433-1.461,4.09-1.119,5.937,0.764l0,0c1.846,1.882,2.181,4.593,0.749,6.055L14.207,65.863z"/>
<path d="M44.304,8C32.94,8,23.728,17.212,23.728,28.575c0,11.363,9.212,20.575,20.575,20.575c11.363,0,20.575-9.212,20.575-20.575  C64.879,17.212,55.667,8,44.304,8z M44.304,40.957c-6.838,0-12.382-5.544-12.382-12.382c0-6.838,5.544-12.382,12.382-12.382  c6.838,0,12.382,5.544,12.382,12.382C56.686,35.414,51.142,40.957,44.304,40.957z"/>
<g>
	<rect x="47.986" y="69.8" width="29.813" height="3.286"/>
	<rect x="47.986" y="60.41" width="29.813" height="3.286"/>
	<rect x="47.986" y="51.02" width="29.813" height="3.286"/>
	<path d="M52.681,18.978l-0.258,0.264c2.607,2.27,4.262,5.605,4.262,9.333c0,6.838-5.544,12.382-12.382,12.382   c-3.621,0-6.868-1.564-9.133-4.042l-1.739,1.781V90.34H92V18.978H52.681z M83.55,81.889H41.883V41.513h15.141V27.429H83.55V81.889z   "/>
</g>
<circle fill="#000000" cx="75.098" cy="-18.091" r="12.382"/>
</svg>