<?xml version="1.0" encoding="utf-8"?>
<!-- Generator: Adobe Illustrator 17.1.0, SVG Export Plug-In . SVG Version: 6.00 Build 0)  -->
<!DOCTYPE svg PUBLIC "-//W3C//DTD SVG 1.1//EN" "http://www.w3.org/Graphics/SVG/1.1/DTD/svg11.dtd">
<svg version="1.1" id="Vine" xmlns="http://www.w3.org/2000/svg" xmlns:xlink="http://www.w3.org/1999/xlink" x="0px" y="0px"
	 viewBox="0 0 128 128" enable-background="new 0 0 128 128" xml:space="preserve">
<g id="vine-vine">
	<circle id="vine-back" fill="#262626" cx="64" cy="64" r="64"/>
	<g id="vine-vine_1_">
		<path fill="#FFFFFF" d="M90.5459,64.3809c-8.4531,0-17.2637-4.4864-17.0371-16.168c0.0957-5.0332,1.9453-7.6504,4.6973-7.6504
			c2.6152,0,4.3613,2.3496,4.3613,7.1123c0,2.71-0.7266,5.6768-1.2617,7.4326c0,0,2.6054,4.5459,9.7285,3.1524
			c1.5117-3.3594,2.334-7.709,2.334-11.5235C93.3682,36.4707,88.1357,30.5,78.54,30.5c-9.8613,0-15.6328,7.582-15.6328,17.5791
			c0,9.9014,4.6309,18.4053,12.2657,22.2744c-3.211,6.4219-7.295,12.0781-11.5547,16.3438
			c-7.7286-9.3457-14.7149-21.8096-17.5821-46.1348H34.6318c5.2696,40.5117,20.9688,53.4102,25.1192,55.8887
			c2.3476,1.4101,4.3711,1.3418,6.5176,0.1347c3.3691-1.9179,13.4902-12.0351,19.0996-23.8886
			c0.9218-0.002,3.9941-0.045,5.0332-0.1328"/>
	</g>
</g>
</svg>
