<?xml version="1.0" encoding="iso-8859-1"?>
<!-- Generator: Adobe Illustrator 18.0.0, SVG Export Plug-In . SVG Version: 6.00 Build 0)  -->
<!DOCTYPE svg PUBLIC "-//W3C//DTD SVG 1.1//EN" "http://www.w3.org/Graphics/SVG/1.1/DTD/svg11.dtd">
<svg version="1.1" id="Capa_1" xmlns="http://www.w3.org/2000/svg" xmlns:xlink="http://www.w3.org/1999/xlink" x="0px" y="0px"
	 viewBox="0 0 218.91 218.91" style="enable-background:new 0 0 218.91 218.91;" xml:space="preserve">
<g>
	<path d="M211.41,17.713h-37.643V11.37c0-4.142-3.358-7.5-7.5-7.5s-7.5,3.358-7.5,7.5v6.344h-41.813V11.37
		c0-4.142-3.358-7.5-7.5-7.5c-4.142,0-7.5,3.358-7.5,7.5v6.344H60.141V11.37c0-4.142-3.358-7.5-7.5-7.5c-4.142,0-7.5,3.358-7.5,7.5
		v6.344H7.5c-4.142,0-7.5,3.358-7.5,7.5V207.54c0,4.142,3.358,7.5,7.5,7.5h203.91c4.142,0,7.5-3.358,7.5-7.5V25.213
		C218.91,21.071,215.552,17.713,211.41,17.713z M203.91,200.04H15V32.713h30.141v11.808c0,4.142,3.358,7.5,7.5,7.5
		c4.142,0,7.5-3.358,7.5-7.5V32.713h41.814v11.808c0,4.142,3.358,7.5,7.5,7.5c4.142,0,7.5-3.358,7.5-7.5V32.713h41.813v11.808
		c0,4.142,3.358,7.5,7.5,7.5s7.5-3.358,7.5-7.5V32.713h30.143V200.04z"/>
	<path d="M169.889,130.96c3.313,0,6-2.687,6-6s-2.687-6-6-6h-16.877v-17.262c0-3.313-2.687-6-6-6c-3.313,0-6,2.687-6,6v17.262
		h-25.556v-17.262c0-3.313-2.686-6-6-6c-3.313,0-6,2.687-6,6v17.262H77.9v-17.262c0-3.313-2.686-6-6-6c-3.313,0-6,2.687-6,6v17.262
		H49.02c-3.313,0-6,2.687-6,6s2.687,6,6,6H65.9v18.721H49.02c-3.313,0-6,2.687-6,6c0,3.314,2.687,6,6,6H65.9v17.262
		c0,3.314,2.687,6,6,6c3.314,0,6-2.686,6-6V161.68h25.556v17.262c0,3.314,2.687,6,6,6c3.314,0,6-2.686,6-6V161.68h25.556v17.262
		c0,3.314,2.687,6,6,6c3.313,0,6-2.686,6-6V161.68h16.877c3.313,0,6-2.686,6-6c0-3.313-2.687-6-6-6h-16.877V130.96H169.889z
		 M77.9,149.68V130.96h25.556v18.721H77.9z M141.011,149.68h-25.556V130.96h25.556V149.68z"/>
	<path d="M58.322,82.12h102.265c3.314,0,6-2.686,6-6c0-3.314-2.686-6-6-6H58.322c-3.314,0-6,2.686-6,6
		C52.322,79.434,55.008,82.12,58.322,82.12z"/>
</g>
</svg>
