<?xml version="1.0" encoding="UTF-8" standalone="no"?>
<svg width="30px" height="41px" viewBox="0 0 30 41" version="1.1" xmlns="http://www.w3.org/2000/svg" xmlns:xlink="http://www.w3.org/1999/xlink">
    <!-- Generator: Sketch 41.2 (35397) - http://www.bohemiancoding.com/sketch -->
    <title>Shape</title>
    <desc>Created with Sketch.</desc>
    <defs></defs>
    <g id="Recherches-UI" stroke="none" stroke-width="1" fill="none" fill-rule="evenodd">
        <g id="Module-Recherche-step-2-page-de-resultats-participants-&amp;-experts---TOUT" transform="translate(-431.000000, -1092.000000)" fill="#5404D7">
            <g id="liste-de-resultats" transform="translate(308.000000, 264.000000)">
                <g id="proposition-6" transform="translate(0.000000, 805.000000)">
                    <g id="text-document" transform="translate(123.000000, 23.000000)">
                        <g id="Capa_1">
                            <path d="M22.8722923,0 L2.51295129,0 C1.14593123,0 0.0327507163,1.12806582 0.0327507163,2.51214225 L0.0327507163,38.4513843 C0.0327507163,39.8375499 1.14593123,40.9638747 2.51295129,40.9638747 L27.4512894,40.9638747 C28.8195129,40.9638747 29.9316619,39.8375499 29.9316619,38.4513843 L29.9316619,7.7677155 L22.8722923,0 Z M23.4576791,3.75911677 L26.5518911,7.16455414 L23.4576791,7.16455414 L23.4576791,3.75911677 Z M27.848596,38.4514713 C27.848596,38.6727495 27.6697135,38.8544204 27.4501719,38.8544204 L2.51295129,38.8544204 C2.29375358,38.8544204 2.11590258,38.6727495 2.11590258,38.4514713 L2.11590258,2.51214225 C2.11590258,2.29034183 2.29375358,2.11058599 2.51295129,2.11058599 L21.3734957,2.11058599 L21.3734957,8.21976008 C21.3734957,8.80142038 21.8413754,9.27296391 22.4161032,9.27296391 L27.848596,9.27296391 L27.848596,38.4514713 Z M5.79060172,11.219724 L23.4799427,11.219724 C23.9108596,11.219724 24.2603725,11.5736645 24.2603725,12.0100403 C24.2603725,12.4464161 23.9108596,12.8003567 23.4799427,12.8003567 L5.79060172,12.8003567 C5.35977077,12.8003567 5.01017192,12.4464161 5.01017192,12.0100403 C5.01017192,11.5737516 5.35977077,11.219724 5.79060172,11.219724 Z M24.2603725,17.3209766 C24.2603725,17.7572654 23.9108596,18.111293 23.4799427,18.111293 L5.79060172,18.111293 C5.35977077,18.111293 5.01017192,17.7573524 5.01017192,17.3209766 C5.01017192,16.8846008 5.35977077,16.5306603 5.79060172,16.5306603 L23.4799427,16.5306603 C23.9108596,16.5306603 24.2603725,16.8846879 24.2603725,17.3209766 Z M24.2603725,22.4579894 C24.2603725,22.8943652 23.9108596,23.2483057 23.4799427,23.2483057 L5.79060172,23.2483057 C5.35977077,23.2483057 5.01017192,22.8943652 5.01017192,22.4579894 C5.01017192,22.0216136 5.35977077,21.667673 5.79060172,21.667673 L23.4799427,21.667673 C23.9108596,21.667673 24.2603725,22.0216136 24.2603725,22.4579894 Z M24.2603725,27.6824862 C24.2603725,28.118862 23.9108596,28.4728025 23.4799427,28.4728025 L5.79060172,28.4728025 C5.35977077,28.4728025 5.01017192,28.118862 5.01017192,27.6824862 C5.01017192,27.2461104 5.35977077,26.8921699 5.79060172,26.8921699 L23.4799427,26.8921699 C23.9108596,26.8921699 24.2603725,27.2461104 24.2603725,27.6824862 Z" id="Shape"></path>
                        </g>
                    </g>
                </g>
            </g>
        </g>
    </g>
</svg>