<?xml version="1.0" encoding="utf-8"?>
<!-- Generator: Adobe Illustrator 16.0.0, SVG Export Plug-In . SVG Version: 6.00 Build 0)  -->
<!DOCTYPE svg PUBLIC "-//W3C//DTD SVG 1.1//EN" "http://www.w3.org/Graphics/SVG/1.1/DTD/svg11.dtd">
<svg version="1.1" id="Layer_1" xmlns="http://www.w3.org/2000/svg" xmlns:xlink="http://www.w3.org/1999/xlink" x="0px" y="0px"
	 width="64px" height="64px" viewBox="0 0 64 64" enable-background="new 0 0 64 64" xml:space="preserve">
<g>
	<path opacity="0.5" fill="#FFD37F" d="M58.5,58.5c0,1.104-0.896,2-2,2h-49c-1.104,0-2-0.896-2-2v-49c0-1.104,0.896-2,2-2h49
		c1.104,0,2,0.896,2,2V58.5z"/>
</g>
<path fill="#FFBD40" d="M50.549,48.644c-0.072-1.066-0.285-3.678-0.717-4.888c-0.559-1.564-1.246-2.268-2.106-2.842
	c-0.423-0.282-1.992-0.876-4.338-1.752c-2.132-0.796-4.548-1.699-5.414-2.191c-0.782-0.444-1.387-2.495-1.368-3.137
	c0.008-0.03,0.071-0.171,0.528-0.671c0.921-1.005,2.14-2.94,2.642-4.812c0.683-2.555,1.207-7.729-1.159-10.914
	c-1.346-1.812-3.439-2.775-6.224-2.864l-0.209-0.005l-0.073,0.005c-2.785,0.089-4.879,1.053-6.225,2.865
	c-2.366,3.187-1.841,8.359-1.158,10.914c0.5,1.871,1.716,3.802,2.634,4.806c0.005,0.006,0.012,0.012,0.018,0.018
	c0.001,0.002,0.002,0.003,0.003,0.005c0.136,0.147,0.452,0.494,0.52,0.685c0.244,0.688-0.642,2.689-1.374,3.105
	c-0.864,0.492-3.281,1.395-5.444,2.202c-2.331,0.87-3.89,1.461-4.309,1.741c-0.86,0.573-1.547,1.275-2.105,2.841
	c-0.436,1.218-0.649,3.848-0.72,4.923l-0.02,0.299l0.216,0.206c0.633,0.602,3.808,2.563,18.103,2.563
	c14.181,0,17.434-1.982,18.093-2.59l0.225-0.207L50.549,48.644z"/>
</svg>
