<svg width="53" height="53" xmlns="http://www.w3.org/2000/svg">

 <g>
  <title>background</title>
  <rect fill="none" id="canvas_background" height="402" width="582" y="-1" x="-1"/>
 </g>
 <g>
  <title>Layer 1</title>
  <g id="svg_1">
   <g id="svg_2">
    <path fill="#9b9b9b" stroke="#9b9b9b" id="svg_3" d="m2,13.5l49,0c1.104,0 2,-0.896 2,-2s-0.896,-2 -2,-2l-49,0c-1.104,0 -2,0.896 -2,2s0.896,2 2,2z"/>
    <path fill="#9b9b9b" stroke="#9b9b9b" id="svg_4" d="m2,28.5l49,0c1.104,0 2,-0.896 2,-2s-0.896,-2 -2,-2l-49,0c-1.104,0 -2,0.896 -2,2s0.896,2 2,2z"/>
    <path fill="#9b9b9b" stroke="#9b9b9b" id="svg_5" d="m2,43.5l49,0c1.104,0 2,-0.896 2,-2s-0.896,-2 -2,-2l-49,0c-1.104,0 -2,0.896 -2,2s0.896,2 2,2z"/>
   </g>
  </g>
 </g>
</svg>