<?xml version="1.0" encoding="iso-8859-1"?>
<!-- Generator: Adobe Illustrator 19.1.0, SVG Export Plug-In . SVG Version: 6.00 Build 0)  -->
<svg version="1.1" id="Capa_1" xmlns="http://www.w3.org/2000/svg" xmlns:xlink="http://www.w3.org/1999/xlink" x="0px" y="0px"
	 viewBox="0 0 476.208 476.208" style="enable-background:new 0 0 476.208 476.208;" xml:space="preserve">
<g>
	<path d="M0,21.213L21.213,0l454.995,454.995l-21.213,21.213L0,21.213z"/>
	<path d="M354.431,238.104c0-64.141-52.183-116.323-116.323-116.323c-15.573,0-30.437,3.084-44.024,8.66l151.687,151.687
		C351.347,268.541,354.431,253.677,354.431,238.104z"/>
	<path d="M384.431,238.104c0,23.978-5.798,46.627-16.065,66.619l18.518,18.518c32.142-22.136,59.114-51.239,78.724-85.137
		c-30.729-53.118-79.526-94.471-137.986-115.665C362.158,149.229,384.431,191.112,384.431,238.104z"/>
	<path d="M121.784,238.104c0,64.141,52.183,116.323,116.323,116.323c15.573,0,30.437-3.084,44.024-8.66L130.444,194.081
		C124.868,207.668,121.784,222.532,121.784,238.104z"/>
	<path d="M91.784,238.104c0-23.978,5.798-46.627,16.065-66.619l-18.518-18.518c-32.142,22.136-59.114,51.239-78.724,85.137
		c30.729,53.118,79.526,94.471,137.986,115.665C114.056,326.979,91.784,285.097,91.784,238.104z"/>
</g>
<g>
</g>
<g>
</g>
<g>
</g>
<g>
</g>
<g>
</g>
<g>
</g>
<g>
</g>
<g>
</g>
<g>
</g>
<g>
</g>
<g>
</g>
<g>
</g>
<g>
</g>
<g>
</g>
<g>
</g>
</svg>
