<?xml version="1.0" encoding="iso-8859-1"?>
<!-- Generator: Adobe Illustrator 18.1.1, SVG Export Plug-In . SVG Version: 6.00 Build 0)  -->
<svg version="1.1" id="Capa_1" xmlns="http://www.w3.org/2000/svg" xmlns:xlink="http://www.w3.org/1999/xlink" x="0px" y="0px"
	 viewBox="0 0 14.142 14.142" style="enable-background:new 0 0 14.142 14.142;" xml:space="preserve">
<g>
	<path style="fill:#000000;" d="M7.071,0C3.166,0,0,3.166,0,7.071s3.166,7.071,7.071,7.071s7.071-3.166,7.071-7.071
		S10.976,0,7.071,0z M6.96,11.511c-0.676,0-1.135-0.498-1.135-1.161c0-0.677,0.472-1.161,1.135-1.161
		c0.689,0,1.136,0.484,1.148,1.161C8.108,11.013,7.649,11.511,6.96,11.511z M8.504,6.765c-0.472,0.522-0.663,1.021-0.65,1.594v0.23
		H6.158L6.145,8.257C6.107,7.606,6.324,6.943,6.897,6.254c0.409-0.485,0.741-0.893,0.741-1.327c0-0.447-0.294-0.74-0.933-0.766
		c-0.42,0-0.931,0.153-1.263,0.383L5.008,3.153C5.467,2.885,6.233,2.63,7.139,2.63c1.684,0,2.45,0.931,2.45,1.991
		C9.589,5.591,8.989,6.229,8.504,6.765z"/>
</g>
<g>
</g>
<g>
</g>
<g>
</g>
<g>
</g>
<g>
</g>
<g>
</g>
<g>
</g>
<g>
</g>
<g>
</g>
<g>
</g>
<g>
</g>
<g>
</g>
<g>
</g>
<g>
</g>
<g>
</g>
</svg>
