<?xml version="1.0" encoding="iso-8859-1"?>
<!-- Generator: Adobe Illustrator 19.0.0, SVG Export Plug-In . SVG Version: 6.00 Build 0)  -->
<svg version="1.1" id="Layer_1" xmlns="http://www.w3.org/2000/svg" xmlns:xlink="http://www.w3.org/1999/xlink" x="0px" y="0px"
	 viewBox="0 0 455 455" style="enable-background:new 0 0 455 455;" xml:space="preserve">
<g>
	<path d="M81.177,227.5c0-46.992,22.272-88.875,56.809-115.665C79.526,133.029,30.729,174.382,0,227.5
		c30.729,53.118,79.526,94.471,137.986,115.665C103.449,316.375,81.177,274.492,81.177,227.5z"/>
	<path d="M227.5,111.177c-64.141,0-116.323,52.183-116.323,116.323S163.359,343.823,227.5,343.823S343.823,291.641,343.823,227.5
		S291.641,111.177,227.5,111.177z M227.5,262.5c-19.33,0-35-15.67-35-35s15.67-35,35-35s35,15.67,35,35S246.83,262.5,227.5,262.5z"
		/>
	<path d="M317.014,111.835c34.537,26.79,56.809,68.673,56.809,115.665s-22.272,88.875-56.809,115.665
		C375.474,321.971,424.271,280.618,455,227.5C424.271,174.382,375.474,133.029,317.014,111.835z"/>
</g>
<g>
</g>
<g>
</g>
<g>
</g>
<g>
</g>
<g>
</g>
<g>
</g>
<g>
</g>
<g>
</g>
<g>
</g>
<g>
</g>
<g>
</g>
<g>
</g>
<g>
</g>
<g>
</g>
<g>
</g>
</svg>
