<?xml version="1.0" encoding="UTF-8" standalone="no"?>
<svg width="28px" height="28px" viewBox="0 0 28 28" version="1.1" xmlns="http://www.w3.org/2000/svg" xmlns:xlink="http://www.w3.org/1999/xlink">
    <!-- Generator: Sketch 39.1 (31720) - http://www.bohemiancoding.com/sketch -->
    <title>j'aime état 0</title>
    <desc>Created with Sketch.</desc>
    <defs></defs>
    <g id="Page-1" stroke="none" stroke-width="1" fill="none" fill-rule="evenodd">
        <g id="j'aime-état-0">
            <g id="j'aime-état-1" transform="translate(3.000000, 3.000000)">
                <path d="M10.9271523,1.09271523 C5.49271523,1.09271523 1.09271523,5.49271523 1.09271523,10.9271523 C1.09271523,16.3615894 5.49271523,20.7615894 10.9271523,20.7615894 C16.3615894,20.7615894 20.7615894,16.3615894 20.7615894,10.9271523 C20.7615894,5.49271523 16.3615894,1.09271523 10.9271523,1.09271523 L10.9271523,1.09271523 Z" id="Shape" stroke="#46D38D" fill="#FFFFFF"></path>
                <path d="M6.30860927,7.75099338 C5.55099338,7.75099338 4.93907285,8.36291391 4.93907285,9.1205298 C4.93907285,9.8781457 5.55099338,10.4900662 6.30860927,10.4900662 C7.06622517,10.4900662 7.6781457,9.8781457 7.6781457,9.1205298 C7.66357616,8.36291391 7.06622517,7.75099338 6.30860927,7.75099338 L6.30860927,7.75099338 Z" id="Shape" fill="#46D38D"></path>
                <path d="M15.5456954,7.75099338 C14.7880795,7.75099338 14.1761589,8.36291391 14.1761589,9.1205298 C14.1761589,9.8781457 14.7880795,10.4900662 15.5456954,10.4900662 C16.3033113,10.4900662 16.9152318,9.8781457 16.9152318,9.1205298 C16.9152318,8.36291391 16.3033113,7.75099338 15.5456954,7.75099338 L15.5456954,7.75099338 Z" id="Shape" fill="#46D38D"></path>
                <path d="M16.4490066,13.5059603 C13.2874172,16.6238411 8.58145695,16.6238411 5.41986755,13.5059603 C5.17218543,13.2582781 5.12847682,12.8649007 5.31788079,12.6463576 C5.50728477,12.4423841 5.82781457,12.4569536 6.04635762,12.6754967 C8.84370861,15.4437086 13.0251656,15.4437086 15.8225166,12.6754967 C16.0410596,12.4569536 16.3615894,12.4423841 16.5509934,12.6463576 C16.7403974,12.8649007 16.6966887,13.2582781 16.4490066,13.5059603 L16.4490066,13.5059603 Z" id="Shape" fill="#46D38D"></path>
            </g>
        </g>
    </g>
</svg>