<?xml version="1.0" encoding="UTF-8" standalone="no"?>
<svg width="28px" height="28px" viewBox="0 0 28 28" version="1.1" xmlns="http://www.w3.org/2000/svg" xmlns:xlink="http://www.w3.org/1999/xlink">
    <!-- Generator: Sketch 39.1 (31720) - http://www.bohemiancoding.com/sketch -->
    <title>pas d'accord etat 0</title>
    <desc>Created with Sketch.</desc>
    <defs></defs>
    <g id="Page-1" stroke="none" stroke-width="1" fill="none" fill-rule="evenodd">
        <g id="pas-d'accord-etat-0">
            <g id="pas-d'accord" transform="translate(3.000000, 3.000000)">
                <path d="M11,1.09271523 C5.56556291,1.09271523 1.16556291,5.49271523 1.16556291,10.9271523 C1.16556291,16.3615894 5.56556291,20.7615894 11,20.7615894 C16.4344371,20.7615894 20.8344371,16.3615894 20.8344371,10.9271523 C20.8344371,5.49271523 16.4344371,1.09271523 11,1.09271523 L11,1.09271523 Z" id="Shape" stroke="#F75959" fill="#FFFFFF"></path>
                <path d="M6.38145695,7.75099338 C5.62384106,7.75099338 5.01192053,8.36291391 5.01192053,9.1205298 C5.01192053,9.8781457 5.62384106,10.4900662 6.38145695,10.4900662 C7.13907285,10.4900662 7.75099338,9.8781457 7.75099338,9.1205298 C7.75099338,8.36291391 7.12450331,7.75099338 6.38145695,7.75099338 L6.38145695,7.75099338 Z" id="Shape" fill="#F75959"></path>
                <path d="M15.618543,7.75099338 C14.8609272,7.75099338 14.2490066,8.36291391 14.2490066,9.1205298 C14.2490066,9.8781457 14.8609272,10.4900662 15.618543,10.4900662 C16.3761589,10.4900662 16.9880795,9.8781457 16.9880795,9.1205298 C16.9880795,8.36291391 16.3761589,7.75099338 15.618543,7.75099338 L15.618543,7.75099338 Z" id="Shape" fill="#F75959"></path>
                <path d="M16.5218543,14.8463576 C13.3602649,11.7284768 8.65430464,11.7284768 5.49271523,14.8463576 C5.24503311,15.0940397 5.2013245,15.4874172 5.39072848,15.7059603 C5.58013245,15.9099338 5.90066225,15.8953642 6.1192053,15.6768212 C8.91655629,12.9086093 13.0980132,12.9086093 15.8953642,15.6768212 C16.1139073,15.8953642 16.4344371,15.9099338 16.6238411,15.7059603 C16.813245,15.4874172 16.7695364,15.0940397 16.5218543,14.8463576 L16.5218543,14.8463576 Z" id="Shape" fill="#F75959"></path>
            </g>
        </g>
    </g>
</svg>