<?xml version="1.0" encoding="UTF-8" standalone="no"?>
<svg width="28px" height="28px" viewBox="0 0 28 28" version="1.1" xmlns="http://www.w3.org/2000/svg" xmlns:xlink="http://www.w3.org/1999/xlink">
    <!-- Generator: Sketch 39.1 (31720) - http://www.bohemiancoding.com/sketch -->
    <title>passur de comprendre etat 0</title>
    <desc>Created with Sketch.</desc>
    <defs></defs>
    <g id="Page-1" stroke="none" stroke-width="1" fill="none" fill-rule="evenodd">
        <g id="passur-de-comprendre-etat-0">
            <g id="pas-sur-de-comprendre" transform="translate(3.000000, 3.000000)">
                <path d="M10.9271523,1.16556291 C5.49271523,1.16556291 1.09271523,5.56556291 1.09271523,11 C1.09271523,16.4344371 5.49271523,20.8344371 10.9271523,20.8344371 C16.3615894,20.8344371 20.7615894,16.4344371 20.7615894,11 C20.7615894,5.56556291 16.3615894,1.16556291 10.9271523,1.16556291 L10.9271523,1.16556291 Z" id="Shape" stroke="#FAAF3F" fill="#FFFFFF"></path>
                <g id="Group" transform="translate(3.788079, 5.682119)" fill="#FBB040">
                    <g transform="translate(1.019868, 2.331126)">
                        <path d="M1.50066225,0.0437086093 C0.743046358,0.0437086093 0.131125828,0.655629139 0.131125828,1.41324503 C0.131125828,2.17086093 0.743046358,2.78278146 1.50066225,2.78278146 C2.25827815,2.78278146 2.87019868,2.17086093 2.87019868,1.41324503 C2.85562914,0.655629139 2.24370861,0.0437086093 1.50066225,0.0437086093 L1.50066225,0.0437086093 Z" id="Shape"></path>
                        <ellipse id="Oval" cx="10.7377483" cy="1.3986755" rx="1.36953642" ry="1.36953642"></ellipse>
                    </g>
                    <g id="Rectangle-path">
                        <rect transform="translate(11.950428, 1.323568) rotate(-69.910674) translate(-11.950428, -1.323568) " x="11.4040465" y="-0.861959513" width="1.09271523" height="4.37086093"></rect>
                        <rect transform="translate(2.329435, 1.331114) rotate(-20.078564) translate(-2.329435, -1.331114) " x="0.144057534" y="0.784769268" width="4.37086093" height="1.09271523"></rect>
                    </g>
                    <path d="M9.63046358,8.20264901 L7.88211921,9.54304636 C7.53245033,9.81986755 7.38675497,10.2278146 7.57615894,10.4609272 C7.75099338,10.7086093 8.18807947,10.6794702 8.55231788,10.402649 L10.3006623,9.06225166 C10.6649007,8.78543046 10.7960265,8.37748344 10.6211921,8.14437086 C10.4317881,7.91125828 9.99470199,7.92582781 9.63046358,8.20264901 L9.63046358,8.20264901 Z" id="Shape"></path>
                </g>
            </g>
        </g>
    </g>
</svg>