<svg width="512" height="512" xmlns="http://www.w3.org/2000/svg">

 <g>
  <title>background</title>
  <rect fill="none" id="canvas_background" height="402" width="582" y="-1" x="-1"/>
 </g>
 <g>
  <title>Layer 1</title>
  <g id="svg_1">
   <path fill="#ffffff" stroke="#ffffff" id="svg_2" d="m448,64l-384,0c-35.344,0 -64,28.656 -64,64l0,256c0,35.344 28.656,64 64,64l384,0c35.344,0 64,-28.656 64,-64l0,-256c0,-35.344 -28.656,-64 -64,-64zm-105.344,170.781l135.469,-116.094c0.938,3 1.875,6 1.875,9.313l0,256c0,2.219 -0.844,4.188 -1.281,6.281l-136.063,-155.5zm105.344,-138.781c2.125,0 4,0.813 6,1.219l-198,169.719l-198,-169.719c2,-0.406 3.875,-1.219 6,-1.219l384,0zm-414.734,294.25c-0.438,-2.094 -1.266,-4.031 -1.266,-6.25l0,-256c0,-3.313 0.953,-6.313 1.891,-9.313l135.422,116.063l-136.047,155.5zm30.734,25.75c-3.234,0 -6.172,-0.938 -9.125,-1.844l138.75,-158.563l51.969,44.531c2.984,2.595 6.703,3.876 10.406,3.876s7.422,-1.281 10.406,-3.875l51.969,-44.531l138.75,158.563c-2.937,0.905 -5.875,1.843 -9.125,1.843l-384,0z"/>
  </g>
  <g id="svg_3"/>
  <g id="svg_4"/>
  <g id="svg_5"/>
  <g id="svg_6"/>
  <g id="svg_7"/>
  <g id="svg_8"/>
  <g id="svg_9"/>
  <g id="svg_10"/>
  <g id="svg_11"/>
  <g id="svg_12"/>
  <g id="svg_13"/>
  <g id="svg_14"/>
  <g id="svg_15"/>
  <g id="svg_16"/>
  <g id="svg_17"/>
 </g>
</svg>