<?xml version="1.0" encoding="UTF-8" standalone="no"?>
<svg width="20px" height="20px" viewBox="0 0 20 20" version="1.1" xmlns="http://www.w3.org/2000/svg" xmlns:xlink="http://www.w3.org/1999/xlink">
    <!-- Generator: Sketch 3.7.2 (28276) - http://www.bohemiancoding.com/sketch -->
    <title>Shape</title>
    <desc>Created with Sketch.</desc>
    <defs></defs>
    <g id="Page-1" stroke="none" stroke-width="1" fill="none" fill-rule="evenodd">
        <g id="--Tokens-v3-voter" transform="translate(-395.000000, -311.000000)" fill="#00C037">
            <g id="Popin">
                <g id="Suite">
                    <g id="Contenus" transform="translate(0.000000, 114.000000)">
                        <g id="MT" transform="translate(15.000000, 130.000000)">
                            <g id="Consignes">
                                <g id="Capa_1" transform="translate(1.000000, 65.000000)">
                                    <g id="Positifs">
                                        <path d="M395.502468,4.40290592 C394.033821,3.14581033 392.306132,2.38898953 390.526231,2.11591613 C387.221287,1.60889544 383.737173,2.77040185 381.403029,5.49749315 C377.81179,9.69329844 378.301811,16.0057599 382.497616,19.5970665 C383.966263,20.8540946 385.693884,21.6109154 387.473786,21.8839888 C390.778662,22.391077 394.262911,21.2294357 396.596987,18.5022769 C400.188226,14.3065391 399.698138,7.99407757 395.502468,4.40290592 L395.502468,4.40290592 Z M384.26632,8.81775008 L385.123182,9.3974914 C384.781301,9.90734536 384.538111,10.4885033 384.418979,11.1136444 L383.404735,10.9101886 C383.551189,10.1479036 383.848615,9.43931589 384.26632,8.81775008 L384.26632,8.81775008 Z M383.408581,13.0958552 L384.424241,12.8999547 C384.547286,13.5233419 384.79405,14.1022062 385.138563,14.6095642 L384.277316,15.1830319 C383.857856,14.5634224 383.558002,13.856656 383.408581,13.0958552 L383.408581,13.0958552 Z M386.384325,8.1292651 L385.810858,7.26801802 C386.431681,6.84801924 387.139999,6.54823213 387.902352,6.39948538 L388.098252,7.41514576 C387.473313,7.5375161 386.89283,7.7842131 386.384325,8.1292651 L386.384325,8.1292651 Z M389.898864,16.5693786 C390.521913,16.4477503 391.100913,16.2028072 391.608541,15.8598465 L392.181873,16.7208912 C391.561994,17.1387313 390.855295,17.4370343 390.094764,17.585039 L389.898864,16.5693786 L389.898864,16.5693786 Z M393.726613,15.1773653 L392.869751,14.597624 C393.212644,14.089389 393.45725,13.5096477 393.578339,12.8857883 L394.59265,13.0891767 C394.444173,13.8502474 394.145263,14.5573511 393.726613,15.1773653 L393.726613,15.1773653 Z M393.578609,11.0994781 C393.457453,10.4747417 393.212644,9.89425834 392.869144,9.38541627 L393.730121,8.81201608 C394.148501,9.43317713 394.446737,10.1414276 394.594202,10.9035776 L393.578609,11.0994781 L393.578609,11.0994781 Z M395.357161,5.64414868 L395.162812,7.08048242 L393.726478,7.27510119 L393.92103,5.83869999 L395.357161,5.64414868 L395.357161,5.64414868 Z M392.183627,7.26430778 L391.603886,8.12110258 C391.094369,7.77773705 390.513076,7.53313128 389.887665,7.41258232 L390.091121,6.39833858 C390.853676,6.54620837 391.562331,6.84511851 392.183627,7.26430778 L392.183627,7.26430778 Z M388.458415,3.94850313 C388.449645,3.909377 388.444653,3.86876678 388.444653,3.82694229 C388.444653,3.52067913 388.692969,3.27243058 388.999232,3.27243058 C389.305428,3.27243058 389.553744,3.52067913 389.553744,3.82694229 C389.553744,3.86869932 389.548752,3.90930954 389.539983,3.94843567 C389.821691,3.97481208 390.042281,4.21159263 390.042281,4.50031649 C390.042281,4.80657965 389.793965,5.0548282 389.487769,5.0548282 C389.277028,5.0548282 389.09381,4.93738235 388.999974,4.76428295 C388.906139,4.93731489 388.722988,5.0548282 388.512247,5.0548282 C388.205984,5.0548282 387.957735,4.80657965 387.957735,4.50031649 C387.957668,4.21219976 388.177381,3.97562159 388.458415,3.94850313 L388.458415,3.94850313 Z M382.73325,5.75255504 C384.353544,5.39455095 384.641458,6.23124301 384.4633,6.57683468 C384.313136,6.86812198 384.04546,6.91311703 383.801866,6.82117062 C383.86096,7.06260583 383.848817,7.33244121 383.557462,7.48267206 C383.211803,7.66089833 382.375179,7.37284906 382.73325,5.75255504 L382.73325,5.75255504 Z M380.203881,12.6404405 C380.104109,12.328241 380.261558,12.1071783 380.498811,11.9999862 C380.286383,11.8710724 380.104042,11.671664 380.203881,11.3594645 C380.322271,10.9890479 381.117476,10.6010921 382.010024,11.9999862 C381.117476,13.3988128 380.322271,13.010857 380.203881,12.6404405 L380.203881,12.6404405 Z M382.64299,18.3555539 L382.837339,16.9192202 L384.273808,16.7244665 L384.079121,18.1610026 L382.64299,18.3555539 L382.64299,18.3555539 Z M385.823877,16.7245339 L386.403618,15.8676717 C386.912191,16.2090809 387.491865,16.4522026 388.115454,16.571942 L387.912066,17.5862532 C387.151332,17.4391929 386.444296,17.141632 385.823877,16.7245339 L385.823877,16.7245339 Z M389.541736,20.0512669 C389.550506,20.090393 389.555498,20.1309358 389.555498,20.1726928 C389.555498,20.478956 389.307182,20.727272 389.000919,20.727272 C388.694791,20.7272046 388.446542,20.478956 388.446475,20.1727603 C388.446475,20.1309358 388.451467,20.0903256 388.460236,20.0511995 C388.178528,20.0248231 387.957938,19.7879076 387.957938,19.4993861 C387.957938,19.1931229 388.206254,18.9448069 388.512517,18.9448069 C388.723123,18.9448069 388.906274,19.0622528 389.000177,19.2352847 C389.094012,19.0623202 389.27723,18.9448069 389.487904,18.9448069 C389.794167,18.9448069 390.042483,19.1931229 390.042483,19.4993861 C390.042551,19.7873679 389.822837,20.0241485 389.541736,20.0512669 L389.541736,20.0512669 Z M395.215902,18.2352073 C393.595541,18.5932789 393.307559,17.7565868 393.485853,17.4109952 C393.636084,17.1197079 393.906054,17.1075653 394.147422,17.1665918 C394.055475,16.9230653 394.100403,16.6553886 394.39169,16.5051578 C394.737214,16.3269315 395.573906,16.6149808 395.215902,18.2352073 L395.215902,18.2352073 Z M395.989993,11.9999862 C396.882541,10.6010921 397.677813,10.9890479 397.796136,11.3594645 C397.895907,11.671664 397.713634,11.8710724 397.501206,11.9999862 C397.738458,12.1071783 397.895975,12.328241 397.796136,12.6404405 C397.677745,13.010857 396.882541,13.3988128 395.989993,11.9999862 L395.989993,11.9999862 Z" id="Shape"></path>
                                    </g>
                                </g>
                            </g>
                        </g>
                    </g>
                </g>
            </g>
        </g>
    </g>
</svg>