<?xml version="1.0" encoding="UTF-8" standalone="no"?>
<!-- Created with Inkscape (http://www.inkscape.org/) -->

<svg
   xmlns:dc="http://purl.org/dc/elements/1.1/"
   xmlns:cc="http://creativecommons.org/ns#"
   xmlns:rdf="http://www.w3.org/1999/02/22-rdf-syntax-ns#"
   xmlns:svg="http://www.w3.org/2000/svg"
   xmlns="http://www.w3.org/2000/svg"
   version="1.1"
   width="20"
   height="20"
   viewBox="0 0 20 20"
   id="svg2">
  <title
     id="title4">Shape</title>
  <desc
     id="desc6">Created with Sketch.</desc>
  <metadata
     id="metadata22">
    <rdf:RDF>
      <cc:Work
         rdf:about="">
        <dc:format>image/svg+xml</dc:format>
        <dc:type
           rdf:resource="http://purl.org/dc/dcmitype/StillImage" />
        <dc:title>Shape</dc:title>
      </cc:Work>
    </rdf:RDF>
  </metadata>
  <defs
     id="defs8" />
  <g
     id="Page-1"
     style="fill:none;stroke:none">
    <g
       transform="translate(-395,-311)"
       id="--Tokens-v3-voter"
       style="fill:#ff0000;fill-opacity:1">
      <g
         id="Popin"
         style="fill:#ff0000;fill-opacity:1">
        <g
           id="Suite"
           style="fill:#ff0000;fill-opacity:1">
          <g
             transform="translate(0,114)"
             id="Contenus"
             style="fill:#ff0000;fill-opacity:1">
            <g
               transform="translate(15,130)"
               id="MT"
               style="fill:#ff0000;fill-opacity:1">
              <g
                 id="Consignes"
                 style="fill:#ff0000;fill-opacity:1">
                <g
                   transform="translate(1,65)"
                   id="Capa_1"
                   style="fill:#ff0000;fill-opacity:1">
                  <g
                     id="Positifs"
                     style="fill:#ff0000;fill-opacity:1">
                    <path
                       d="m 395.50247,4.4029059 c -1.46865,-1.2570956 -3.19634,-2.0139164 -4.97624,-2.2869898 -3.30494,-0.5070207 -6.78906,0.6544857 -9.1232,3.3815771 -3.59124,4.1958052 -3.10122,10.5082668 1.09459,14.0995728 1.46864,1.257029 3.19626,2.013849 4.97617,2.286923 3.30487,0.507088 6.78912,-0.654553 9.1232,-3.381712 3.59124,-4.195738 3.10115,-10.5081994 -1.09452,-14.0993711 l 0,0 z m -11.23615,4.4148442 0.85686,0.5797413 c -0.34188,0.509854 -0.58507,1.0910116 -0.7042,1.7161526 l -1.01424,-0.203455 c 0.14645,-0.762285 0.44387,-1.4708731 0.86158,-2.0924389 l 0,0 z m -0.85774,4.2781049 1.01566,-0.1959 c 0.12305,0.623387 0.36981,1.202251 0.71432,1.709609 l -0.86124,0.573468 c -0.41946,-0.61961 -0.71932,-1.326376 -0.86874,-2.087177 l 0,0 z m 2.97574,-4.9665899 -0.57346,-0.8612471 c 0.62082,-0.4199988 1.32914,-0.7197859 2.09149,-0.8685326 l 0.1959,1.0156604 c -0.62494,0.1223703 -1.20542,0.3690673 -1.71393,0.7141193 l 0,0 z m 3.51454,8.4401139 c 0.62305,-0.121629 1.20205,-0.366572 1.70968,-0.709532 l 0.57333,0.861044 c -0.61988,0.41784 -1.32658,0.716143 -2.08711,0.864148 l -0.1959,-1.01566 0,0 z m 3.82775,-1.392014 -0.85686,-0.579741 c 0.34289,-0.508235 0.5875,-1.087976 0.70859,-1.711836 l 1.01431,0.203389 c -0.14848,0.76107 -0.44739,1.468174 -0.86604,2.088188 l 0,0 z m -0.148,-4.077887 c -0.12116,-0.624736 -0.36597,-1.2052197 -0.70947,-1.7140617 l 0.86098,-0.5734002 c 0.41838,0.621161 0.71662,1.3294119 0.86408,2.0915619 l -1.01559,0.1959 0,0 z m 1.77855,-5.4553293 -0.19435,1.4363337 -1.43633,0.1946188 0.19455,-1.4364012 1.43613,-0.1945513 0,0 z m -3.17353,1.6201591 -0.57974,0.8567948 C 391.09437,7.777737 390.51308,7.5331313 389.88767,7.4125823 l 0.20345,-1.0142437 c 0.76256,0.1478698 1.47121,0.4467799 2.09251,0.8659692 l 0,0 z m -3.72522,-3.3158047 c -0.009,-0.039126 -0.0138,-0.079736 -0.0138,-0.1215608 0,-0.3062632 0.24832,-0.5545117 0.55458,-0.5545117 0.3062,0 0.55451,0.2482485 0.55451,0.5545117 0,0.041757 -0.005,0.082367 -0.0138,0.1214934 0.28171,0.026376 0.5023,0.2631569 0.5023,0.5518808 0,0.3062631 -0.24831,0.5545117 -0.55451,0.5545117 -0.21074,0 -0.39396,-0.1174459 -0.4878,-0.2905453 -0.0938,0.173032 -0.27698,0.2905453 -0.48772,0.2905453 -0.30627,0 -0.55451,-0.2482486 -0.55451,-0.5545117 -7e-5,-0.2881167 0.21964,-0.5246949 0.50067,-0.5518134 l 0,0 z m -5.72516,1.8040519 c 1.62029,-0.3580041 1.90821,0.478688 1.73005,0.8242797 -0.15016,0.2912873 -0.41784,0.3362823 -0.66143,0.2443359 0.0591,0.2414352 0.0469,0.5112706 -0.24441,0.6615015 -0.34566,0.1782262 -1.18228,-0.109823 -0.82421,-1.7301171 l 0,0 z m -2.52937,6.887886 c -0.0998,-0.3122 0.0577,-0.533263 0.29493,-0.640455 -0.21243,-0.128914 -0.39477,-0.328322 -0.29493,-0.640521 0.11839,-0.370417 0.9136,-0.758373 1.80614,0.640521 -0.89254,1.398827 -1.68775,1.010871 -1.80614,0.640455 l 0,0 z m 2.43911,5.715113 0.19435,-1.436334 1.43647,-0.194754 -0.19469,1.436537 -1.43613,0.194551 0,0 z m 3.18089,-1.63102 0.57974,-0.856862 c 0.50857,0.341409 1.08825,0.584531 1.71183,0.70427 l -0.20338,1.014311 c -0.76074,-0.14706 -1.46777,-0.444621 -2.08819,-0.861719 l 0,0 z m 3.71786,3.326733 c 0.009,0.03913 0.0138,0.07967 0.0138,0.121426 0,0.306263 -0.24832,0.554579 -0.55458,0.554579 -0.30613,-6.7e-5 -0.55438,-0.248316 -0.55444,-0.554512 0,-0.04182 0.005,-0.08243 0.0138,-0.121561 -0.28171,-0.02638 -0.5023,-0.263291 -0.5023,-0.551813 0,-0.306263 0.24831,-0.554579 0.55458,-0.554579 0.2106,0 0.39375,0.117446 0.48766,0.290478 0.0938,-0.172965 0.27705,-0.290478 0.48772,-0.290478 0.30627,0 0.55458,0.248316 0.55458,0.554579 7e-5,0.287982 -0.21964,0.524762 -0.50074,0.551881 l 0,0 z m 5.67416,-1.81606 c -1.62036,0.358072 -1.90834,-0.47862 -1.73005,-0.824212 0.15023,-0.291287 0.4202,-0.30343 0.66157,-0.244403 -0.0919,-0.243527 -0.047,-0.511203 0.24427,-0.661434 0.34552,-0.178227 1.18222,0.109823 0.82421,1.730049 l 0,0 z m 0.77409,-6.235221 c 0.89255,-1.398894 1.68782,-1.010938 1.80615,-0.640521 0.0998,0.312199 -0.0825,0.511607 -0.29493,0.640521 0.23725,0.107192 0.39477,0.328255 0.29493,0.640455 -0.11839,0.370416 -0.9136,0.758372 -1.80615,-0.640455 l 0,0 z"
                       id="Shape"
                       style="fill:#ff0000;fill-opacity:1" />
                  </g>
                </g>
              </g>
            </g>
          </g>
        </g>
      </g>
    </g>
  </g>
</svg>
