<svg xmlns="http://www.w3.org/2000/svg" width="108" height="198" viewBox="0 0 108 198">
    <g fill="none" fill-rule="evenodd">
        <path stroke="#5ECC6B" stroke-linecap="round" stroke-linejoin="round" d="M2.964 1H42c-4.55 18.356-7.161 35.445-7.835 51.267l-32.02-.284C.377 32.834.65 15.84 2.964 1z"/>
        <path fill="#93E79D" d="M2 56h32.603c0 19.132.818 36.132 2.455 51H11.387C7.797 96.91 4.669 79.91 2 56z"/>
        <path fill="#FBB040" d="M12 110h25.286c1.719 16.628 3.808 31.628 6.267 45H30.009C24.575 144.738 18.572 129.738 12 110z"/>
        <path fill="#F75959" d="M31.01 158h12.945a465.217 465.217 0 0 0 11.318 39.187C46.988 186.754 38.9 173.692 31.009 158z"/>
        <path fill="#93E79D" d="M99.851 99.202H82.602c-1.049 0-1.899.837-1.899 1.87 0 1.032.85 1.868 1.9 1.868h14.124c2.4 0 4.352 1.923 4.352 4.285 0 2.363-1.952 4.285-4.352 4.285H82.602c-1.049 0-1.899.836-1.899 1.868s.85 1.87 1.9 1.87h11.969a3.05 3.05 0 0 1 2.196.919c.582.592.885 1.372.854 2.198-.056 1.597-1.48 2.896-3.17 2.896H77.697c-8.216 0-14.9-6.582-14.9-14.672V92.997c0-8.09 6.684-14.672 14.9-14.672H97.12c2.398 0 4.416 1.852 4.498 4.127a4.22 4.22 0 0 1-1.216 3.133 4.35 4.35 0 0 1-3.132 1.31H82.602c-1.049 0-1.899.836-1.899 1.869 0 1.032.85 1.869 1.9 1.869H99.85c2.4 0 4.351 1.922 4.351 4.284 0 2.363-1.952 4.285-4.351 4.285zM76.994 64.635c0-2.7 2.232-4.897 4.974-4.897s4.974 2.197 4.974 4.897v9.952h-9.245c-.235 0-.468.01-.703.019v-9.97zM108 94.917c0-3.124-1.826-5.837-4.482-7.16a7.873 7.873 0 0 0 1.893-5.437c-.153-4.264-3.873-7.733-8.292-7.733h-6.381v-9.952c0-4.761-3.934-8.635-8.77-8.635-4.836 0-8.77 3.874-8.77 8.635V75.13C65.055 77.12 59 84.373 59 92.997v13.594C59 116.74 67.387 125 77.697 125h16.755c3.774 0 6.833-2.857 6.965-6.502a6.63 6.63 0 0 0-1.18-4.035c2.74-1.294 4.638-4.051 4.638-7.24a7.904 7.904 0 0 0-1.752-4.96c2.868-1.244 4.877-4.067 4.877-7.346z"/>
    </g>
</svg>
