<svg xmlns="http://www.w3.org/2000/svg" width="120" height="198" viewBox="0 0 120 198">
    <g fill="none" fill-rule="evenodd">
        <path stroke="#5ECC6B" stroke-linecap="round" stroke-linejoin="round" d="M2.964 1H42c-4.55 18.356-7.161 35.445-7.835 51.267l-32.02-.284C.377 32.834.65 15.84 2.964 1z"/>
        <path stroke="#93E79D" stroke-linecap="round" stroke-linejoin="round" d="M2 56h32.603c0 19.132.818 36.132 2.455 51H11.387C7.797 96.91 4.669 79.91 2 56z"/>
        <path fill="#FBB040" d="M12 110h25.286c1.719 16.628 3.808 31.628 6.267 45H30.009C24.575 144.738 18.572 129.738 12 110z"/>
        <path fill="#F75959" d="M31.01 158h12.945a465.217 465.217 0 0 0 11.318 39.187C46.988 186.754 38.9 173.692 31.009 158z"/>
        <path fill="#FBB040" d="M76.798 115.851V98.602c0-1.049-.837-1.899-1.87-1.899-1.032 0-1.868.85-1.868 1.9v14.124c0 2.4-1.923 4.352-4.285 4.352-2.363 0-4.285-1.952-4.285-4.352V98.602c0-1.049-.836-1.899-1.868-1.899s-1.87.85-1.87 1.9v11.969a3.05 3.05 0 0 1-.919 2.196 2.954 2.954 0 0 1-2.198.854c-1.597-.056-2.896-1.48-2.896-3.17V93.697c0-8.216 6.582-14.9 14.672-14.9h13.592c8.09 0 14.672 6.684 14.672 14.9v19.422c0 2.398-1.852 4.416-4.127 4.498a4.22 4.22 0 0 1-3.133-1.216 4.35 4.35 0 0 1-1.31-3.132V98.602c0-1.049-.836-1.899-1.869-1.899-1.032 0-1.869.85-1.869 1.9v17.248c0 2.4-1.922 4.351-4.284 4.351-2.363 0-4.285-1.952-4.285-4.351zm34.567-22.857c2.7 0 4.897 2.232 4.897 4.974s-2.197 4.974-4.897 4.974h-9.952v-9.245c0-.235-.01-.468-.019-.703h9.97zM81.083 124c3.124 0 5.837-1.826 7.16-4.482a7.873 7.873 0 0 0 5.437 1.893c4.264-.153 7.733-3.873 7.733-8.292v-6.381h9.952c4.761 0 8.635-3.934 8.635-8.77 0-4.836-3.874-8.77-8.635-8.77H100.87C98.88 81.055 91.627 75 83.003 75H69.41C59.26 75 51 83.387 51 93.697v16.755c0 3.774 2.857 6.833 6.502 6.965a6.63 6.63 0 0 0 4.035-1.18c1.294 2.74 4.051 4.638 7.24 4.638a7.904 7.904 0 0 0 4.96-1.752c1.244 2.868 4.067 4.877 7.346 4.877z"/>
    </g>
</svg>
