<svg xmlns="http://www.w3.org/2000/svg" width="129" height="198" viewBox="0 0 129 198">
    <g fill="none" fill-rule="evenodd">
        <path fill="#5ECC6B" stroke="#5ECC6B" stroke-linecap="round" stroke-linejoin="round" d="M2.964 1H42c-4.55 18.356-7.161 35.445-7.835 51.267l-32.02-.284C.377 32.834.65 15.84 2.964 1z"/>
        <path fill="#93E79D" d="M2 56h32.603c0 19.132.818 36.132 2.455 51H11.387C7.797 96.91 4.669 79.91 2 56z"/>
        <path fill="#FBB040" d="M12 110h25.286c1.719 16.628 3.808 31.628 6.267 45H30.009C24.575 144.738 18.572 129.738 12 110z"/>
        <path fill="#F75959" d="M31.01 158h12.945a465.217 465.217 0 0 0 11.318 39.187C46.988 186.754 38.9 173.692 31.009 158z"/>
        <g fill="#5ECC6B" stroke="#5ECC6B" stroke-width=".835">
            <path d="M81.419 96.227l2.039-2.874a3.92 3.92 0 0 0 .511-3.157l-2.167-8.21c-.417-1.645-1.967-2.802-3.747-2.8a3.898 3.898 0 0 0-2.795 1.128l-3.337 3.277c-.961.894-2.482.943-3.505.112-1.021-.83-1.208-2.264-.428-3.306l3.816-5.16c.19-.255.464-.443.778-.535l7.814-2.183c1.381-.391 2.855.237 3.468 1.476l4.397 8.822c.353.697 1.165 1.07 1.959.9.793-.17 1.358-.838 1.363-1.61V52.94c-.028-1.528 1.255-2.789 2.864-2.814 1.609-.026 2.935 1.193 2.962 2.721l.48 30.58c.005.881.71 1.618 1.632 1.707.924.088 1.77-.497 1.961-1.36l4.862-21.405 2.684-11.207c.287-1.51 1.762-2.548 3.366-2.369a2.915 2.915 0 0 1 1.947 1.175c.45.632.604 1.411.427 2.154l-6.71 31.726c-.176.81.303 1.62 1.123 1.9.821.278 1.732-.06 2.136-.794l8.127-15.082c.661-1.394 2.338-2.073 3.856-1.562.742.296 1.323.871 1.602 1.588.277.692.244 1.46-.092 2.129l-8.989 16.304a27.69 27.69 0 0 0-3.073 8.744c-.267 1.641-.472 3.264-.673 4.865a59.625 59.625 0 0 1-1.637 9.188c-.899 3.103-.121 5.067-4.995 6.801-.752.268-1.456.62-1.456 1.385 0 .764.652 1.383 1.456 1.383 1.529.006 2.161-.534 2.161-.534v4.685c0 .764-.652 1.383-1.457 1.383H82.846c-.805 0-1.456-.619-1.456-1.383v-4.638s.458.166 1.977.142c.804 0 1.456-.62 1.456-1.383 0-.765-.656-1.308-1.456-1.385-2.179-.208-2.363-.947-3.143-3.187a6.991 6.991 0 0 0-1.762-2.532L64.335 99.184a1.337 1.337 0 0 1-.423-.978V87.488c-.006-.75.625-1.366 1.415-1.383a5.988 5.988 0 0 1 4.146 1.607c1.102 1.04 1.722 2.453 1.722 3.928v1.384c.003 1.305.65 2.534 1.748 3.32l2.076 1.481c.948.656 1.777.913 2.93 1.118.043.01.082.016.124.023 1.76.296 2.375-1.81 3.346-2.739m-7.311-3.203V91.64a7.961 7.961 0 0 0-1.79-5.021 5.63 5.63 0 0 0 1.686-1.088l3.363-3.307c.252-.212.6-.288.923-.202.324.087.58.323.679.628l2.172 8.226c.093.328.047.678-.129.973h-.001l-3.085 4.357a4.908 4.908 0 0 1-1.164-.59m40.078-26.98l-4.265 7.912 5.047-23.873a5.302 5.302 0 0 0-.878-4.28c-.898-1.252-2.298-2.099-3.872-2.342-3.129-.405-6.052 1.564-6.687 4.502l-2.682 11.208-2.843 12.512-.337-21.473c-.047-3.057-2.694-5.498-5.911-5.453-3.218.045-5.787 2.56-5.74 5.616V77.18l-2.185-4.368c-1.217-2.475-4.157-3.73-6.913-2.953l-7.835 2.19a4.412 4.412 0 0 0-2.318 1.603l-3.81 5.153a5.006 5.006 0 0 0-.806 4.53c.008.02.02.038.026.06-2.18.251-3.824 2.006-3.831 4.093v10.718c0 1.114.473 2.182 1.31 2.963l14.16 12.71c.466.436.826.963 1.058 1.544.255.6.573 1.175.948 1.714v7.712c0 2.293 1.957 4.151 4.37 4.151h23.303c2.414 0 4.37-1.858 4.37-4.15v-7.578a14.825 14.825 0 0 0 2.73-5.41 61.586 61.586 0 0 0 1.72-9.593c.198-1.57.398-3.161.659-4.769a25.036 25.036 0 0 1 2.778-7.887l9.007-16.337c.7-1.366.777-2.944.215-4.365-.563-1.42-1.716-2.56-3.188-3.149-2.935-1.105-6.267.156-7.6 2.874"/>
        </g>
    </g>
</svg>
